<svg xmlns="http://www.w3.org/2000/svg" xmlns:xlink="http://www.w3.org/1999/xlink" width="60" height="46" viewBox="0 0 60 46">
    <defs>
        <path id="zeucm9ygia" d="M0 0.698L59.571 0.698 59.571 16.69 0 16.69z"/>
    </defs>
    <g fill="none" fill-rule="evenodd">
        <g>
            <g>
                <path fill="#DA9EB0" d="M5.998 16.227l.064-.001v1.39l.19 1.377h-.01c.436 2.693 1.196 5.332 2.234 7.859.357.124.725.242 1.112.35 1.924.538 3.977.821 5.91 1.049 8.88 1.042 19.162 1.995 28.83.1.622-.121 1.232-.263 1.84-.407.97-1.109 1.922-2.231 2.836-3.385 1.341-1.697 2.62-3.472 3.656-5.367-.063-.028-.124-.057-.183-.086l1.223-2.497c.047.024.097.046.146.07.072-.191.149-.38.216-.572 1.082-3.117 1.238-6.673-.202-9.642C51.516 1.635 45.25-.478 40.078.96c-4.452 1.237-8.035 4.617-10.346 8.659-2.02-2.876-4.244-5.625-7.18-7.512-3.658-2.35-8.742-3.037-12.261-.483-3.235 2.349-4.308 6.688-4.465 10.68-.051 1.313-.022 2.625.083 3.93l.036-.003.053-.003zM15.174 31.012c-1.654-.194-3.398-.438-5.12-.833 2.851 5.342 7.005 9.985 12.126 13.22 1.195.755 2.562 1.461 3.955 1.225.844-.143 1.59-.618 2.302-1.093 5.257-3.511 10.14-7.585 14.546-12.12-3.621.58-7.291.806-10.915.806-5.87 0-11.625-.586-16.894-1.205" transform="translate(-110 -379) translate(110 379)"/>
                <g transform="translate(-110 -379) translate(110 379) translate(0 15.528)">
                    <mask id="1isn19xdxb" fill="#fff">
                        <use xlink:href="#zeucm9ygia"/>
                    </mask>
                    <path fill="#BB6574" d="M57.84 3.47c-1.089-.93-2.532-1.622-3.807-2.231l-.155-.073-.032-.015c-.05-.023-.098-.046-.145-.07l-1.224 2.497c.06.03.12.058.182.087l.06.028.114.055c2.441 1.167 4.277 2.159 3.898 3.417-.449 1.486-2.302 2.43-3.656 3.008-2.153.919-4.474 1.665-6.906 2.243-.609.144-1.22.286-1.842.409-9.666 1.894-19.95.94-28.828-.102-1.933-.227-3.987-.51-5.91-1.048-.388-.108-.756-.227-1.113-.35-2.151-.75-3.76-1.794-4.89-3.177-.549-.672-.82-1.267-.805-1.769.042-1.43 1.895-2.76 3.401-2.906V3.47l.061-.004.008-.001-.189-1.377V.698H6l-.054.004-.035.004h-.007C3.123.983.09 3.292 0 6.297-.034 7.488.45 8.703 1.433 9.908c1.69 2.072 4.113 3.526 7.408 4.446.402.112.808.206 1.214.298 1.722.396 3.465.64 5.12.834 5.268.618 11.023 1.205 16.893 1.205 3.624 0 7.293-.227 10.916-.807.626-.1 1.254-.208 1.877-.33 3.303-.648 6.434-1.598 9.307-2.823 1.867-.798 4.44-2.161 5.225-4.76.347-1.151.359-2.866-1.552-4.5" mask="url(#1isn19xdxb)"/>
                </g>
            </g>
        </g>
    </g>
</svg>
