<svg xmlns="http://www.w3.org/2000/svg" xmlns:xlink="http://www.w3.org/1999/xlink" width="16" height="34" viewBox="0 0 16 34">
    <defs>
        <path id="pi12nrsnda" d="M0.825 0.877L3.489 0.877 3.489 16.813 0.825 16.813z"/>
    </defs>
    <g fill="none" fill-rule="evenodd">
        <g>
            <g>
                <path fill="#F5C97A" d="M3.102 29.496l-.45-.347c-.56.1-1.104.185-1.61.242-.036.005-.072.01-.107.013-.022.003-.045.004-.068.004-.077 0-.146-.033-.216-.057l1.612 1.238 3.112 2.391c.125.097.273.143.42.143.206 0 .411-.092.546-.269.233-.3.176-.734-.126-.966-1.037-.798-2.074-1.595-3.113-2.392M.271 28.363c.009-.018.019-.035.029-.05.421-.726.827-1.479 1.209-2.239l.01-.022c-.415.703-.878 1.39-1.377 2.042-.228.3-.176.726.119.96l.007.005c-.123-.217-.126-.483.003-.696" transform="translate(-132 -455) translate(132 455)"/>
                <path fill="#F5C97A" d="M2.434 25.767c.34.17.477.584.307.924 1.201-2.033 2.081-4.227 2.612-6.52.084-.363-.134-.725-.49-.822-.36-.097-.73.108-.839.462-.659 2.136-1.502 4.235-2.505 6.241l-.01.022c.17-.34.585-.478.925-.307" transform="translate(-132 -455) translate(132 455)"/>
                <path fill="#F5C97A" d="M.935 29.405c.035-.003.071-.008.106-.013.507-.057 1.051-.142 1.61-.242 2.96-.532 6.486-1.752 9.016-4.524 2.028-2.225 3.007-5.427 2.558-8.238-.044.076-.082.155-.13.229-.29.457-.64.86-1.04 1.199-.03.026-.069.044-.1.07-.032 2.06-.857 4.22-2.306 5.812-2.352 2.576-5.729 3.686-8.51 4.15.205-.381.406-.768.602-1.155v-.001c.17-.34.033-.754-.307-.924-.34-.171-.755-.033-.925.306-.382.76-.788 1.513-1.209 2.238l-.029.05c-.129.214-.126.48-.003.697.003.005.002.01.005.015.085.143.225.227.378.278.07.024.14.056.216.056.023 0 .046-.001.068-.003M14.095 16.617L14.095 16.617 14.095 16.618z" transform="translate(-132 -455) translate(132 455)"/>
                <path fill="#F5C97A" d="M12.166 16.762c-.812.683-2.01.878-3.199.523-1.19-.356-2.08-1.173-2.385-2.188-.194-.648-.165-1.305.08-1.803.349-.711 1.212-1.175 2.112-1.175.138 0 .277.01.414.034.973.156 1.938.822 2.643 1.827.447.633.764 1.346.947 2.123-.18.247-.386.469-.612.659m1.93-.144c-.133.206-.355.319-.582.319-.127 0-.255-.035-.37-.108-.322-.205-.415-.63-.21-.952.304-.476.504-1.025.66-1.578-.183-.387-.388-.762-.635-1.112-.92-1.307-2.213-2.18-3.55-2.395-1.639-.267-3.315.53-3.984 1.894-.402.818-.46 1.814-.162 2.806.436 1.46 1.675 2.624 3.31 3.113.52.156 1.045.232 1.556.232 1.053 0 2.04-.331 2.825-.951.031-.026.07-.044.101-.07.4-.34.75-.742 1.04-1.198" transform="translate(-132 -455) translate(132 455)"/>
                <g transform="translate(-132 -455) translate(132 455) translate(12 .123)">
                    <mask id="dg3z0yphjb" fill="#fff">
                        <use xlink:href="#pi12nrsnda"/>
                    </mask>
                    <path fill="#F5C97A" d="M1.143 16.705c.115.073.244.108.37.108.228 0 .45-.112.582-.318v-.002c.048-.074.086-.153.13-.228.81-1.408 1.046-3.117 1.147-4.308.3-3.55.022-7.102-.826-10.556-.09-.369-.463-.595-.833-.505-.369.091-.595.464-.505.834.812 3.308 1.078 6.71.79 10.111-.055.665-.17 1.508-.405 2.334-.156.553-.355 1.102-.66 1.578-.204.322-.11.747.21.952" mask="url(#dg3z0yphjb)"/>
                </g>
            </g>
        </g>
    </g>
</svg>
