<svg xmlns="http://www.w3.org/2000/svg" xmlns:xlink="http://www.w3.org/1999/xlink" width="21" height="28" viewBox="0 0 21 28">
    <defs>
        <path id="lmirtkfvta" d="M0.788 0.826L7.451 0.826 7.451 7.546 0.788 7.546z"/>
        <path id="0l4fmt7bec" d="M0 0.242L9.715 0.242 9.715 13 0 13z"/>
    </defs>
    <g fill="none" fill-rule="evenodd">
        <g>
            <g>
                <path fill="#CF7677" d="M18.763 7.72c-.117.02-.23.052-.347.075l.075.076c-.987.856-2.013 1.696-3.068 2.507-.241-.044-.5.043-.662.248l-.171.213-.391.488c-.22.269-.204.659.037.91.133.14.315.213.498.213.143 0 .287-.044.409-.134 1.677-1.24 3.297-2.551 4.815-3.9.144-.128.228-.31.232-.502.003-.151-.056-.291-.144-.411-.072.033-.141.073-.222.08-.366.033-.722.079-1.061.137" transform="translate(-50 -458) translate(50 458)"/>
                <g transform="translate(-50 -458) translate(50 458) translate(13 .174)">
                    <mask id="bwywq9hvpb" fill="#fff">
                        <use xlink:href="#lmirtkfvta"/>
                    </mask>
                    <path fill="#CF7677" d="M6.326 6.751c.063.375-.188.73-.563.795.338-.058.695-.104 1.06-.136.081-.008.15-.048.223-.081.143-.067.27-.165.34-.313.104-.222.083-.483-.057-.684C5.851 4.196 4.012 2.383 1.86.942c-.269-.18-.629-.148-.862.078-.234.226-.277.584-.106.859C1.902 3.501 3.06 5.028 4.33 6.447c.394-.103.796-.19 1.202-.259.377-.064.731.188.795.563" mask="url(#bwywq9hvpb)"/>
                </g>
                <path fill="#CF7677" d="M9.168 14.523h.003l.001.001h.002c.247.053.487.126.723.212.347-1.019.855-1.985 1.504-2.818 1.622-2.075 4.166-3.559 7.015-4.124.116-.023.23-.055.347-.075.375-.064.627-.42.563-.795-.064-.375-.418-.627-.795-.563-.406.07-.807.157-1.202.26-2.837.737-5.348 2.32-7.013 4.448-.778.997-1.376 2.158-1.772 3.38.208.02.42.031.62.074h.004M9.164 14.523h0" transform="translate(-50 -458) translate(50 458)"/>
                <path fill="#CF7677" d="M12.588 19.776c.321.944.39 2.491-.481 2.813-.839.31-1.761-.8-2.117-1.648-.618-1.473-.774-3.18-.455-4.873.096.038.192.08.284.126 1.618.805 2.429 2.59 2.769 3.582m-2.889-4.433c-.08.371-.446.608-.818.528-.225-.049-.459-.07-.693-.083-.374 1.965-.194 3.958.531 5.686.566 1.35 1.772 2.547 3.096 2.547.252 0 .51-.044.768-.139 1.666-.615 1.92-2.754 1.309-4.55-.705-2.06-1.934-3.613-3.46-4.372-.173-.086-.353-.158-.535-.224-.236-.086-.476-.159-.723-.21.371.08.606.446.525.817" transform="translate(-50 -458) translate(50 458)"/>
                <g transform="translate(-50 -458) translate(50 458) translate(0 14.174)">
                    <mask id="sc0k3t8hgd" fill="#fff">
                        <use xlink:href="#0l4fmt7bec"/>
                    </mask>
                    <path fill="#CF7677" d="M5.552 2.177c.827-.424 1.755-.612 2.636-.563.234.013.468.034.693.083.372.081.738-.156.818-.528C9.78.8 9.545.432 9.174.351h-.002-.001C9.168.348 9.166.348 9.164.348c-.201-.043-.412-.053-.62-.074C7.338.151 6.053.372 4.922.951c-1.94 1-3.094 2.692-3.72 3.935C.03 7.22-.3 9.911.278 12.463c.072.32.356.537.67.537.05 0 .102-.006.154-.017.37-.084.603-.453.519-.824-.5-2.209-.203-4.634.812-6.653.755-1.499 1.863-2.682 3.119-3.329" mask="url(#sc0k3t8hgd)"/>
                </g>
            </g>
        </g>
    </g>
</svg>
