<svg xmlns="http://www.w3.org/2000/svg" xmlns:xlink="http://www.w3.org/1999/xlink" width="61" height="38" viewBox="0 0 61 38">
    <defs>
        <path id="f6bi8tjn2a" d="M0.671 0.382L33.155 0.382 33.155 14.506 0.671 14.506z"/>
        <path id="90ukqq0sgc" d="M0.483 0.348L23.774 0.348 23.774 13 0.483 13z"/>
        <path id="1ko256sswe" d="M0 0.69L27.58 0.69 27.58 30.423 0 30.423z"/>
    </defs>
    <g fill="none" fill-rule="evenodd">
        <g>
            <g>
                <g transform="translate(-270 -307) translate(270 307) translate(26.197 13.173)">
                    <mask id="o0j2gw0ywb" fill="#fff">
                        <use xlink:href="#f6bi8tjn2a"/>
                    </mask>
                    <path fill="#C96D80" d="M33.156 4.888C30.814 2.7 27.898 1.13 24.78.382 16.707 3.208 8.95 6.855 1.213 10.506c-.11 1.32-.281 2.641-.542 4 4.561-3.078 9.748-5.168 15.071-6.591 5.696-1.523 11.56-2.323 17.414-3.027" mask="url(#o0j2gw0ywb)"/>
                </g>
                <path fill="#F5C57A" d="M27.576 20.24c-.02 1.163-.07 2.301-.165 3.438 7.736-3.65 15.493-7.297 23.567-10.123l.3-.106 2.368-5.543c-9.113 2.111-17.932 5.463-26.16 9.912.076.806.104 1.617.09 2.422" transform="translate(-270 -307) translate(270 307)"/>
                <path fill="#9DB4BB" d="M26.59 13.778l-.107-.281c5.075-3.168 11.555-5.584 16.934-7.374.497-.166 1.018-.225 1.543-.228l.394.006c.264.01.527.031.79.056 2.588.244 5.146.844 7.573 1.78l-.071.17c-9.113 2.11-17.933 5.462-26.16 9.911-.123-1.284-.38-2.552-.795-3.757l-.1-.283z" transform="translate(-270 -307) translate(270 307)"/>
                <g transform="translate(-270 -307) translate(270 307) translate(24.507 .497)">
                    <mask id="rvruoggq1d" fill="#fff">
                        <use xlink:href="#90ukqq0sgc"/>
                    </mask>
                    <path fill="#9B80AC" d="M20.453 5.398l.198-.232c.46-.548.917-1.096 1.374-1.643.687-.82 1.389-1.67 1.71-2.687.03-.095.057-.2.025-.293-.08-.233-.412-.217-.65-.156l-4.887 1.265c-.746.193-1.493.387-2.231.607-3.33.995-6.465 2.54-9.524 4.19C4.505 7.504 2.556 8.614.812 10.003c-.114.09-.223.185-.33.283.089.115.176.23.257.349.508.74.91 1.535 1.237 2.364C7.051 9.833 13.531 7.416 18.91 5.626c.497-.166 1.018-.225 1.543-.228" mask="url(#rvruoggq1d)"/>
                </g>
                <g transform="translate(-270 -307) translate(270 307) translate(0 6.413)">
                    <mask id="iegtlxwo9f" fill="#fff">
                        <use xlink:href="#1ko256sswe"/>
                    </mask>
                    <path fill="#DA9EB0" d="M27.576 13.827c.014-.804-.014-1.615-.09-2.422-.123-1.284-.38-2.55-.794-3.757-.066-.19-.136-.378-.21-.564-.326-.828-.728-1.625-1.236-2.364-.081-.118-.169-.233-.256-.348C23.15 1.939 20.1.31 17.093.768c-1.228.187-2.439.736-3.229 1.696-1.023 1.246-1.207 2.973-1.185 4.586.024 1.753.242 3.504.647 5.21l.13.104c-1.602-1.143-3.925-1.865-5.811-2.421-1.888-.557-4.1-.408-5.592.876-.657.565-1.138 1.316-1.47 2.115-1.5 3.588.054 7.9 2.856 10.596 2.803 2.697 6.61 4.067 10.374 5.046 3.32.864 6.703 1.482 10.113 1.847L24 30.28c1.463-3.379 2.343-6.275 2.867-9.013.261-1.36.433-2.68.543-4.001.094-1.138.146-2.276.165-3.439" mask="url(#iegtlxwo9f)"/>
                </g>
            </g>
        </g>
    </g>
</svg>
