<svg xmlns="http://www.w3.org/2000/svg" xmlns:xlink="http://www.w3.org/1999/xlink" width="55" height="55" viewBox="0 0 55 55">
    <defs>
        <path id="1a0hrurkka" d="M0 0.497L36.115 0.497 36.115 34.048 0 34.048z"/>
        <path id="u9476einwc" d="M0.475 0.606L11.272 0.606 11.272 16.484 0.475 16.484z"/>
    </defs>
    <g fill="none" fill-rule="evenodd">
        <g>
            <g>
                <path fill="#A182B3" d="M29.653 19.997c1.332.152 2.483 1.018 3.383 2.015 3.286 3.652 3.798 9.19 2.217 13.867 1.244.908 2.57 1.705 3.953 2.382.277-.192.554-.387.83-.58 3.893-2.72 7.85-5.504 10.742-9.274 2.89-3.768 4.6-8.747 3.361-13.332-.544-2.012-1.667-3.9-3.343-5.135-1.677-1.231-3.932-1.741-5.912-1.104-1.966.633-3.455 2.273-4.48 4.064-.717 1.248-1.248 2.622-1.515 4.034-.91-3.505-3.007-6.695-5.872-8.908-.732-.563-1.555-1.084-2.476-1.136-2.07-.125-3.5 2.038-4.147 4.006-1.062 3.218-1.252 6.678-.68 10.02.463-.21.938-.395 1.42-.554.813-.264 1.67-.464 2.519-.365" transform="translate(-114 -901) translate(114 901)"/>
                <g transform="translate(-114 -901) translate(114 901) translate(0 19.474)">
                    <mask id="756kryh43b" fill="#fff">
                        <use xlink:href="#1a0hrurkka"/>
                    </mask>
                    <path fill="#CF7677" d="M33.035 2.539c-.9-.999-2.05-1.864-3.382-2.016-.85-.099-1.706.101-2.52.366-.481.159-.956.344-1.418.553-3.312 1.501-6.007 4.256-7.605 7.53-.426-.832-.914-1.636-1.47-2.394C14.51 3.667 11.296 1.44 7.713.998 6.43.837 5.085.914 3.914 1.463c-.991.464-1.815 1.249-2.429 2.155-2.766 4.073-1.192 9.6.86 14.072 2.86 6.224 6.737 12.308 12.149 16.357l.065-.084c3.643-.967 7.005-2.803 10.097-4.959 4.304-3 8.261-6.804 10.249-11.659.127-.307.243-.622.348-.94 1.581-4.677 1.069-10.215-2.218-13.867" mask="url(#756kryh43b)"/>
                </g>
                <g transform="translate(-114 -901) translate(114 901) translate(4.365 .267)">
                    <mask id="qr98agxjxd" fill="#fff">
                        <use xlink:href="#u9476einwc"/>
                    </mask>
                    <path fill="#F5C96E" d="M4.004 10.936c1.155 1.651 2.023 3.553 2.218 5.548-.043-1.975.63-3.935 1.624-5.656.945-1.643 2.173-3.096 3.426-4.518-2.007-.397-3.823-1.696-4.828-3.479-.39-.69-.655-1.446-.79-2.225C4.925 3.317 3 5.716.476 6.953c1.275 1.243 2.512 2.525 3.529 3.983" mask="url(#qr98agxjxd)"/>
                </g>
            </g>
        </g>
    </g>
</svg>
