<svg xmlns="http://www.w3.org/2000/svg" xmlns:xlink="http://www.w3.org/1999/xlink" width="15" height="31" viewBox="0 0 15 31">
    <defs>
        <path id="g017zw0h0a" d="M0 0L14.467 0 14.467 30.12 0 30.12z"/>
    </defs>
    <g fill="none" fill-rule="evenodd">
        <g>
            <g transform="translate(-213 -457) translate(213 457)">
                <mask id="mnlgen6h4b" fill="#fff">
                    <use xlink:href="#g017zw0h0a"/>
                </mask>
                <path fill="#9EBCB9" d="M14.327 1.639c.049-.365.038-.882-.363-1.266-.41-.396-.963-.38-1.231-.37-2.145.073-4.295.288-6.39.64-.362.06-.612.393-.571.757.041.364.364.632.725.61 1.977-.116 3.947.033 5.873.413-4.129 4-7.029 7.667-9.063 11.48C.565 19.05-.525 24.602.237 29.537c.053.34.346.584.68.584.035 0 .07-.002.105-.008.377-.058.635-.41.576-.786-.716-4.643.323-9.89 2.926-14.774 1.791-3.361 4.287-6.616 7.77-10.125l-.885 3.91c-.084.372.148.74.52.825.05.012.102.018.152.018.315 0 .6-.217.672-.537l1.357-5.987.142-.135c.182-.173.257-.43.194-.673-.021-.08-.074-.143-.119-.21" mask="url(#mnlgen6h4b)"/>
            </g>
        </g>
    </g>
</svg>
