<svg xmlns="http://www.w3.org/2000/svg" xmlns:xlink="http://www.w3.org/1999/xlink" width="46" height="29" viewBox="0 0 46 29">
    <defs>
        <path id="3v4pkvohza" d="M0 0.701L15.72 0.701 15.72 21.857 0 21.857z"/>
        <path id="ol6b6o2jzc" d="M0.247 0.485L21.349 0.485 21.349 24.653 0.247 24.653z"/>
    </defs>
    <g fill="none" fill-rule="evenodd">
        <g>
            <g>
                <g transform="translate(-118 -464) translate(118 464) translate(0 5.944)">
                    <mask id="shh6dckx6b" fill="#fff">
                        <use xlink:href="#3v4pkvohza"/>
                    </mask>
                    <path fill="#9C86AC" d="M8.9 11.158c-.197-2.401.078-4.84.804-7.138.325-1.027.774-2.074 1.618-2.744.844-.67 2.18-.825 2.961-.082.473.449.655 1.117.795 1.754 1.306 5.963.604 12.349-1.969 17.887-.18.39-.407.812-.812.963-.311.115-.657.042-.979-.043C5.071 20.098.252 14.078.005 7.62c-.051-1.341.276-2.969 1.538-3.424 1.207-.434 2.455.5 3.315 1.453 1.676 1.855 2.985 4.041 3.83 6.394" mask="url(#shh6dckx6b)"/>
                </g>
                <g transform="translate(-118 -464) translate(118 464) translate(23.143 .8)">
                    <mask id="5nthzkj8wd" fill="#fff">
                        <use xlink:href="#ol6b6o2jzc"/>
                    </mask>
                    <path fill="#C26877" d="M8.707 10.857c2.21-1.593 4.595-3.25 7.317-3.352 2.724-.104 5.7 2.124 5.288 4.818-.237 1.539-1.448 2.724-2.645 3.72-4.902 4.08-10.728 7.046-16.911 8.61C.384 19.484-.058 14.07.452 8.747.684 6.35 1.18 3.821 2.831 2.07 4.483.32 7.638-.19 9.23 1.616c.766.87 1.031 2.08 1.032 3.24.003 2.025-.736 4.045-2.048 5.59" mask="url(#5nthzkj8wd)"/>
                </g>
            </g>
        </g>
    </g>
</svg>
