<svg xmlns="http://www.w3.org/2000/svg" xmlns:xlink="http://www.w3.org/1999/xlink" width="61" height="36" viewBox="0 0 61 36">
    <defs>
        <path id="p3lqt1eb8a" d="M0 0.206L21.057 0.206 21.057 22.14 0 22.14z"/>
        <path id="zywjyoiwrc" d="M0.117 0.372L31.656 0.372 31.656 34.286 0.117 34.286z"/>
    </defs>
    <g fill="none" fill-rule="evenodd">
        <g>
            <g>
                <g transform="translate(-190 -384) translate(190 384) translate(0 5.083)">
                    <mask id="mahyfd2iyb" fill="#fff">
                        <use xlink:href="#p3lqt1eb8a"/>
                    </mask>
                    <path fill="#9DB4BC" d="M15.037 7.934s.603-.95 1.709-.887c1.392.08 2.737.526 3.926 1.236.363-1.492.494-3.027.286-4.55-.162-1.179-.586-2.425-1.582-3.078-1.247-.82-2.954-.413-4.216.384-2.09 1.319-4.207 4.45-4.69 7.176-.344-1.209-.647-2.43-1.167-3.573-.742-1.63-2.069-3.147-3.832-3.456C2.97.75.62 3.021.135 5.512c-.487 2.49.415 5.036 1.517 7.322 1.218 2.53 2.704 4.939 4.522 7.08 1.096 1.29 2.668 2.587 4.3 2.134.844-.234 1.49-.894 2.093-1.529 1.04-1.092 2.08-2.193 3.065-3.336-.46-.805-.857-1.645-1.14-2.531-.709-2.208-.675-4.746.545-6.718" mask="url(#mahyfd2iyb)"/>
                </g>
                <path fill="#F0CA82" d="M28.174 13.223c.016-.714.088-1.43.192-2.142-1.264.495-2.26 1.593-2.836 2.837-.621 1.342-.814 2.84-.882 4.32-.659-2.03-2.128-3.77-3.975-4.871-1.19-.71-2.536-1.157-3.927-1.237-1.106-.063-1.709.887-1.709.887-1.22 1.971-1.254 4.51-.546 6.718.285.886.68 1.726 1.141 2.531.69 1.202 1.533 2.326 2.414 3.398 2.095 2.545 4.484 4.946 7.028 7.046v.036l.02-.018h.002c2.171-1.946 4.131-4.125 5.848-6.48-.27-.725-.524-1.455-.76-2.18-1.136-3.516-2.091-7.152-2.01-10.845" transform="translate(-190 -384) translate(190 384)"/>
                <g transform="translate(-190 -384) translate(190 384) translate(28.052 .408)">
                    <mask id="yfax8pdv9d" fill="#fff">
                        <use xlink:href="#zywjyoiwrc"/>
                    </mask>
                    <path fill="#C26877" d="M31.12 12.195c-1.043-2.787-3.887-4.952-6.852-4.708-2.396.198-4.393 1.798-6.114 3.517-.496-2.182-1.02-4.39-2.114-6.34C14.915 2.66 13.082.93 10.825.485 8.412.008 5.89 1.09 4.108 2.783 1.948 4.836.746 7.703.314 10.673c-.104.713-.177 1.429-.192 2.142-.082 3.694.874 7.33 2.011 10.844.235.726.49 1.456.759 2.18 1.036 2.777 2.384 5.463 4.484 7.43l.046.712c.216-.035.434-.073.65-.111.179.143.363.283.553.416l.234-.566c5.437-1.086 10.641-3.332 15.155-6.554 2.42-1.728 4.686-3.782 6.137-6.378 1.454-2.597 2.01-5.806.968-8.593" mask="url(#yfax8pdv9d)"/>
                </g>
            </g>
        </g>
    </g>
</svg>
