<svg xmlns="http://www.w3.org/2000/svg" xmlns:xlink="http://www.w3.org/1999/xlink" width="53" height="41" viewBox="0 0 53 41">
    <defs>
        <path id="7kd0kjc62a" d="M0.291 0.57L36.693 0.57 36.693 39.448 0.291 39.448z"/>
        <path id="5h39935ufc" d="M0 0.397L22.257 0.397 22.257 22.169 0 22.169z"/>
    </defs>
    <g fill="none" fill-rule="evenodd">
        <g>
            <g>
                <g transform="translate(-274 -832) translate(274 832) translate(15.241 .326)">
                    <mask id="vedixkih0b" fill="#fff">
                        <use xlink:href="#7kd0kjc62a"/>
                    </mask>
                    <path fill="#CE7777" d="M35.57 10.885c-.699-1.32-1.75-2.48-3.083-3.148-1.938-.968-4.25-.815-6.355-.304-3.316.803-6.423 2.456-8.949 4.756-.066.203-.132.408-.2.61.022-.16.044-.323.062-.483.338-2.973-.22-6.116-2.026-8.49-1.902-2.5-5.346-3.923-8.336-2.945C3.066 2.061 1.233 6.08.452 9.803c-.056.274-.111.546-.161.82 1.157-.408 2.427-.49 3.61-.163.882.242 1.732.714 2.261 1.46.496.7.672 1.577.764 2.43.39 3.64-.527 7.327-2.037 10.662-.735 1.63-1.608 3.19-2.556 4.707 1.336 3.3 3.18 6.394 5.487 9.111.183.216.377.438.64.544.325.13.697.064 1.04-.01 7.886-1.687 15.26-5.695 20.969-11.392 2.257-2.251 4.289-4.815 5.395-7.807 1.106-2.99 1.198-6.461-.294-9.28" mask="url(#vedixkih0b)"/>
                </g>
                <g transform="translate(-274 -832) translate(274 832) translate(0 10.189)">
                    <mask id="du2kd74ptd" fill="#fff">
                        <use xlink:href="#5h39935ufc"/>
                    </mask>
                    <path fill="#F5C96E" d="M22.167 4.489c-.092-.855-.268-1.732-.764-2.43-.528-.747-1.379-1.219-2.26-1.461-1.183-.326-2.453-.245-3.61.163-1.036.36-1.98.981-2.705 1.804-.92 1.042-1.473 2.373-1.638 3.755-.855-1.026-1.818-1.94-2.977-2.597-2.108-1.191-5.037-1.277-6.74.44C.626 5.015.178 6.204.043 7.397c-.298 2.703.943 5.403 2.79 7.394 1.851 1.989 4.261 3.366 6.698 4.564 2.133 1.05 4.32 1.988 6.548 2.814.51-.763 1.014-1.532 1.495-2.312.949-1.517 1.821-3.077 2.557-4.707 1.509-3.335 2.427-7.022 2.036-10.661" mask="url(#du2kd74ptd)"/>
                </g>
            </g>
        </g>
    </g>
</svg>
