<svg xmlns="http://www.w3.org/2000/svg" xmlns:xlink="http://www.w3.org/1999/xlink" width="33" height="17" viewBox="0 0 33 17">
    <defs>
        <path id="74ha6u7tea" d="M0.001 0L32.066 0 32.066 16.333 0.001 16.333z"/>
    </defs>
    <g fill="none" fill-rule="evenodd">
        <g>
            <g transform="translate(-124 -995) translate(124 995)">
                <mask id="99fkh4wa8b" fill="#fff">
                    <use xlink:href="#74ha6u7tea"/>
                </mask>
                <path fill="#D58850" d="M21.159 9.971c-.13.634-.352 1.111-.659 1.415-.294.293-.722.447-1.23.436-.61-.015-1.228-.283-1.612-.703-.745-.81-.96-2.21-.53-3.483.351-1.049 1.087-2.08 2.248-3.146 1.464 1.483 2.172 3.597 1.783 5.481m-1.034-6.15c-.164.203-.395.322-.637.348.242-.026.473-.145.637-.348.326-.409.261-1.004-.146-1.331h.002c.405.328.47.922.144 1.33M9.289 11.145c.137 1.371-.013 2.918-.84 3.255l-.025-.047c-1.125-2.241-1.213-4.949-.285-7.179.186.221.345.476.473.747.448.953.564 2.106.677 3.224m-.632-4.993c-.192.343-.566.519-.933.476.367.043.74-.133.933-.476m22.879.992c-.502-2.25-1.152-4.564-3.046-5.984-1.454-1.09-3.515-1.437-5.508-.93-1.217.306-2.412.922-3.63 1.837-.544-.359-1.11-.67-1.712-.878-3.565-1.238-7.839.158-10.157 3.315l-.015.023c-.198-.056-.396-.107-.6-.129-2.374-.263-4.218 1.767-5.002 3.895-.25.68-.43 1.375-.605 2.048-.287 1.113-.558 2.165-1.113 3.044-.28.443-.149 1.027.294 1.306.157.1.331.147.506.147.312 0 .62-.156.8-.441.714-1.129 1.037-2.376 1.348-3.583.169-.656.33-1.275.548-1.866.502-1.359 1.613-2.65 2.819-2.66-1.203 2.762-1.128 6.137.27 8.915.116.233.391.78.981 1.014.189.079.396.117.61.117.184 0 .373-.027.562-.085 1.743-.494 2.576-2.424 2.288-5.295-.124-1.216-.26-2.593-.847-3.839-.297-.633-.713-1.18-1.197-1.625 1.836-2.364 5.188-3.447 7.893-2.51.283.098.558.227.828.37-1.249 1.203-2.093 2.413-2.52 3.684-.652 1.936-.285 4.042.932 5.368.731.796 1.837 1.288 2.961 1.314.033.002.066.002.1.002.978 0 1.865-.348 2.509-.985.577-.573.975-1.373 1.182-2.379.502-2.43-.357-5.134-2.161-7.052.884-.613 1.739-1.022 2.593-1.236 1.445-.367 2.908-.14 3.908.61 1.377 1.032 1.907 2.977 2.333 4.88.463 2.09.84 4.274-.067 5.968-.246.46-.072 1.034.389 1.281.143.077.295.113.447.113.338 0 .665-.181.834-.5 1.214-2.266.763-4.942.245-7.274" mask="url(#99fkh4wa8b)"/>
            </g>
        </g>
    </g>
</svg>
