<svg xmlns="http://www.w3.org/2000/svg" xmlns:xlink="http://www.w3.org/1999/xlink" width="34" height="39" viewBox="0 0 34 39">
    <defs>
        <path id="iuykjimw9a" d="M0 0.09L16.022 0.09 16.022 19.588 0 19.588z"/>
        <path id="d464fy1jlc" d="M0.618 0.736L12.676 0.736 12.676 18.321 0.618 18.321z"/>
        <path id="lnxjja5jne" d="M0.393 0.173L16.752 0.173 16.752 19 0.393 19z"/>
    </defs>
    <g fill="none" fill-rule="evenodd">
        <g>
            <g>
                <g transform="translate(-123 -307) translate(123 307) translate(0 4.264)">
                    <mask id="khpcj7gvtb" fill="#fff">
                        <use xlink:href="#iuykjimw9a"/>
                    </mask>
                    <path fill="#F0CC7A" d="M10.547.195C9.275 4.09 4.095 7.228 0 7.426c2.224.792 3.772 2.902 4.489 5.15.718 2.248.73 4.652.737 7.011 1.832-4.604 5.982-8.214 10.796-9.39C12.847 7.857 10.82 4.03 10.669.09" mask="url(#khpcj7gvtb)"/>
                </g>
                <g transform="translate(-123 -307) translate(123 307) translate(21 .264)">
                    <mask id="nqxiyeelsd" fill="#fff">
                        <use xlink:href="#d464fy1jlc"/>
                    </mask>
                    <path fill="#A0B7C0" d="M7.828.736C7.238 3.985 3.9 6.483.618 6.13c3.955 2.577 5.628 7.52 6.325 12.19-.133-3.616 1.986-7.22 5.209-8.863.15-.077.309-.155.41-.29.388-.51-.3-1.125-.848-1.453-2.228-1.326-3.735-3.791-3.9-6.378" mask="url(#nqxiyeelsd)"/>
                </g>
                <g transform="translate(-123 -307) translate(123 307) translate(11 18.264)">
                    <mask id="boj9s9cc4f" fill="#fff">
                        <use xlink:href="#lnxjja5jne"/>
                    </mask>
                    <path fill="#B76674" d="M9.172.212C8.5 3.732 3.836 7.634.392 8.625 4.513 10.285 7.433 14.56 7.48 19c1.03-1.965 2.107-3.934 3.603-5.572 1.495-1.638 3.468-2.936 5.669-3.212-4.205-1.44-7.33-5.603-7.537-10.043" mask="url(#boj9s9cc4f)"/>
                </g>
            </g>
        </g>
    </g>
</svg>
