<svg xmlns="http://www.w3.org/2000/svg" xmlns:xlink="http://www.w3.org/1999/xlink" width="61" height="19" viewBox="0 0 61 19">
    <defs>
        <path id="acl0i4gpra" d="M0.112 0.156L17.396 0.156 17.396 15.556 0.112 15.556z"/>
        <path id="ln7anwvfqc" d="M0.324 0.251L18.111 0.251 18.111 16.972 0.324 16.972z"/>
    </defs>
    <g fill="none" fill-rule="evenodd">
        <g>
            <g>
                <g transform="translate(-110 -843) translate(110 843) translate(42.222 2.712)">
                    <mask id="pw3r77mi8b" fill="#fff">
                        <use xlink:href="#acl0i4gpra"/>
                    </mask>
                    <path fill="#F5C97A" d="M.294 4.882c.584 2.819 2.35 5.283 4.495 7.203 1.49 1.335 3.165 2.442 4.885 3.47 2.448-1.61 4.544-3.751 6.087-6.241.748-1.207 1.373-2.517 1.574-3.922.198-1.404-.072-2.92-.961-4.024C15.823.687 15.008.173 14.13.157 12.826.13 11.737 1.17 11.06 2.285c-.574.941-.917 1.239-1.586 2.53-.951-1.562-2.292-2.883-3.868-3.807C4.365.277 2.534.09 1.309.846-.05 1.686-.03 3.32.294 4.882" mask="url(#pw3r77mi8b)"/>
                </g>
                <g transform="translate(-110 -843) translate(110 843) translate(20.74 .49)">
                    <mask id="uah3yyu8jd" fill="#fff">
                        <use xlink:href="#ln7anwvfqc"/>
                    </mask>
                    <path fill="#CF7677" d="M7.838 16.972c2.358-1.372 4.591-2.96 6.658-4.74.942-.806 1.863-1.675 2.459-2.762.984-1.8 1.351-3.311 1.058-5.342-.173-1.213-1.134-2.062-2.136-2.656-.66-.39-2.192-.337-2.632-.19-1.692.567-2.646 1.755-3.54 3.16-.736-.97-1.583-1.853-2.518-2.633C6.022.835 4.533-.008 3.05.325 1.441.689.408 2.395.331 4.042c-.078 1.65.6 3.238 1.371 4.695 1.605 3.039 3.684 5.826 6.136 8.235" mask="url(#uah3yyu8jd)"/>
                </g>
                <path fill="#9C2F26" d="M14.292 1.868c-1.729.098-3.364 1.806-4.342 3.236-.157.23-.3.469-.428.716-.374-.945-.88-1.786-1.833-2.617C5.876 1.625 2.698.937 1.018 2.655-.381 4.087-.197 6.734.72 8.513c.916 1.777 2.214 3.608 3.773 4.864 1.47 1.186 1.97 1.627 3.443 2.81.467.376.973.764 1.51 1.034 2.72-1.601 5.146-3.694 7.126-6.147 1.386-1.715 2.65-4.621 1.868-6.68-.613-1.62-2.42-2.622-4.148-2.526" transform="translate(-110 -843) translate(110 843)"/>
            </g>
        </g>
    </g>
</svg>
