<svg xmlns="http://www.w3.org/2000/svg" width="31" height="49" viewBox="0 0 31 49">
    <g fill="none" fill-rule="evenodd">
        <g fill="#88718A">
            <g>
                <path d="M24.604 39.697l-.075.63c1.388.143 2.787.221 4.178.221.477 0 .954-.009 1.427-.026.38-.013.677-.333.663-.713-.012-.372-.318-.664-.687-.664h-.026c-1.857.067-3.744-.002-5.61-.206-.11-.012-.215.01-.312.046.287.11.48.392.442.712M12.423 7.283c1.358 2.667 1.56 5.878.484 8.652-.153.398-.269.458-.268.459-.004 0-.1-.013-.293-.194-.769-.72-1.117-1.821-1.037-3.273.048-.871.248-1.852.595-2.916.088-.27 0-.556-.2-.732-.302 1.12-.49 2.337-.563 3.64-.056.995-.042 2.064.04 3.176.016.223-.082.42-.237.558.145.189.282.386.458.55.478.45.914.569 1.238.569.075 0 .144-.006.207-.016.59-.09 1.042-.536 1.346-1.325 1.328-3.427.92-7.437-1.022-10.593-.068.11-.138.212-.205.33-.203.353-.373.734-.543 1.115" transform="translate(-205 -904) translate(205 904)"/>
                <path d="M1.587 5.484c.499-1.661 2.364-2.896 4.317-2.896.085 0 .168.002.253.007 1.871.103 3.76 1.193 5.181 2.987.08.102.154.21.23.315.072-.135.127-.283.204-.414.188-.331.61-.444.94-.254.329.189.443.609.255.939.066-.118.136-.221.204-.33.075-.121.148-.248.226-.362 2.444-3.617 6.46-4.65 9.161-3.8.694.219 1.255.527 1.668.914.758.715 1.09 1.777 1.233 2.54.678 3.642-1.168 7.25-3.264 10.606-1.896 3.036-3.968 6.01-6.159 8.84-.872 1.128-1.913 2.347-3.235 2.545-1.367.203-2.85-.694-4.412-2.667-3.67-4.64-6.037-10.186-6.846-16.04-.158-1.138-.212-2.073.044-2.93M7.31 25.309c1.692 2.139 3.407 3.219 5.104 3.219.197 0 .395-.015.59-.044 1.83-.274 3.088-1.726 4.123-3.065 2.218-2.866 4.315-5.878 6.236-8.952 2.137-3.421 4.216-7.473 3.45-11.59-.264-1.405-.817-2.512-1.644-3.29-.566-.531-1.306-.943-2.197-1.225-4.172-1.311-8.49 1.13-10.65 4.244-1.657-2.032-3.868-3.264-6.088-3.387C3.53 1.069.974 2.734.266 5.089-.079 6.25.02 7.465.178 8.604 1.02 14.7 3.486 20.476 7.31 25.309" transform="translate(-205 -904) translate(205 904)"/>
                <path d="M9.807 16.197c.027.362.33.638.687.638l.051-.002c.158-.011.29-.083.4-.18.154-.138.253-.335.236-.558-.082-1.112-.096-2.181-.04-3.176.072-1.304.261-2.52.562-3.64.19-.708.44-1.366.72-1.996.17-.381.34-.762.542-1.114l.001-.001c.19-.33.074-.75-.255-.94-.329-.19-.75-.075-.94.255-.076.13-.13.279-.202.414-1.038 1.963-1.657 4.287-1.804 6.945-.059 1.055-.045 2.183.042 3.355M.568 47.13c1.105.27 2.229.406 3.358.406.66 0 1.322-.046 1.982-.14.377-.052.639-.4.587-.777-.053-.376-.399-.64-.779-.586-1.423.2-2.906.155-4.318-.13-.075-2.284.064-4.572.416-6.808.059-.376-.197-.728-.573-.787-.377-.06-.729.197-.788.573-.394 2.499-.531 5.06-.41 7.613.014.305.228.564.525.637M9.505 38.539l.035-.034c.08-.079.174-.127.274-.159-.822-.004-1.319.318-1.582.621-.25.286-.221.722.065.972.037.032.08.049.12.072.287-.538.643-1.04 1.082-1.462.003-.003.003-.007.006-.01" transform="translate(-205 -904) translate(205 904)"/>
                <path d="M10.243 39.755c.155.03.324.074.507.133.897.28 1.959.703 2.199 1.502.25.838-.513 1.75-.754 2.011-.706.767-1.845 1.273-2.526.794-.49-.345-.622-1.113-.584-1.715.065-1.005.483-1.98 1.158-2.725m-1.368 5.566c.437.308.924.442 1.42.442 1.054 0 2.152-.602 2.913-1.427.99-1.072 1.377-2.289 1.06-3.342-.427-1.42-1.885-2.04-3.103-2.42-.3-.096-.576-.154-.841-.194.068.033.135.071.19.127.269.27.267.706-.002.975l-.032.031c-.134.135-.31.202-.487.202-.176 0-.353-.067-.487-.202-.267-.266-.267-.695-.006-.965-.441.423-.795.925-1.083 1.462-.395.737-.653 1.546-.707 2.381-.08 1.262.354 2.358 1.165 2.93" transform="translate(-205 -904) translate(205 904)"/>
                <path d="M9.505 38.539c-.003.003-.003.007-.006.01-.26.269-.26.698.006.965.135.134.313.201.487.201.177 0 .353-.067.488-.201l.031-.032c.27-.268.272-.704.004-.974-.056-.057-.123-.094-.192-.128-.16-.078-.341-.09-.51-.034-.1.032-.194.08-.273.159l-.034.034zM17.215 46.07c.051.01.102.017.151.017.205 0 .404-.092.536-.255 1.292-1.594 2.344-3.36 3.125-5.247.145-.351-.023-.755-.374-.9-.352-.145-.754.022-.9.374-.542 1.31-1.224 2.559-2.034 3.725-.25-1.28-.424-2.575-.52-3.868-.028-.38-.367-.664-.737-.637-.38.028-.665.359-.637.738.138 1.86.431 3.725.872 5.543.062.255.263.452.518.51M22.804 43.132l-.405 3.385c-.029.225-.086.692.216 1.09.312.41.804.47 1.013.494.748.093 1.498.14 2.248.14 1.058 0 2.114-.093 3.157-.277.375-.067.625-.424.56-.799-.067-.375-.425-.624-.8-.558-1.648.291-3.329.334-4.997.127l-.035-.005.005-.045.388-3.226c-.255-.06-.514-.103-.766-.168-.196-.05-.39-.105-.584-.158M24.604 39.697c.038-.32-.155-.603-.442-.712-.053-.02-.103-.046-.162-.053-.377-.046-.719.225-.764.603-.087.74-.177 1.476-.266 2.215.253.071.507.14.762.206.193.05.392.081.586.128l.211-1.758.075-.629" transform="translate(-205 -904) translate(205 904)"/>
                <path d="M22.97 41.75c-.026-.007-.055-.014-.08-.022-.369-.103-.748.11-.852.477-.102.366.111.746.477.849.096.027.193.052.29.078.193.054.387.107.583.158.252.065.511.108.766.168 1.588.375 3.205.674 4.825.853.025.002.051.004.076.004.346 0 .644-.261.684-.614.041-.378-.232-.719-.61-.76-1.616-.178-3.228-.476-4.81-.857-.196-.046-.394-.079-.587-.128-.255-.066-.509-.135-.762-.206" transform="translate(-205 -904) translate(205 904)"/>
            </g>
        </g>
    </g>
</svg>
