<svg xmlns="http://www.w3.org/2000/svg" xmlns:xlink="http://www.w3.org/1999/xlink" width="57" height="15" viewBox="0 0 57 15">
    <defs>
        <path id="2dxuo65t2a" d="M0 0L56.121 0 56.121 14.82 0 14.82z"/>
    </defs>
    <g fill="none" fill-rule="evenodd">
        <g>
            <g transform="translate(-272 -996) translate(272 996)">
                <mask id="k033yhz53b" fill="#fff">
                    <use xlink:href="#2dxuo65t2a"/>
                </mask>
                <path fill="#88718A" d="M.444 14.775c.08.03.163.045.245.045.277 0 .539-.17.644-.444 1.37-3.612 2.649-5.945 4.505-9.12 1.65 1.882 3.3 3.765 4.95 5.645.132.15.32.234.518.234.199 0 .387-.085.518-.234 1.46-1.659 2.782-3.445 3.936-5.318 1.195 1.396 2.174 2.954 2.919 4.64.102.232.323.388.575.408.252.021.494-.098.632-.31 1.175-1.8 2.246-3.684 3.192-5.616l3.299 5.613c.106.182.289.305.498.334.207.03.418-.038.57-.183 1.942-1.845 3.716-3.872 5.286-6.039.727 1.721 1.356 3.486 1.876 5.26.075.257.293.447.558.487.265.04.529-.077.676-.3l4.172-6.29 2.828 6.996c.098.244.328.411.589.43.265.018.513-.114.646-.342l3.93-6.758c.77 1.68 1.67 3.304 2.686 4.843.127.193.342.31.572.31h.003c.23 0 .445-.114.573-.305 1.417-2.11 2.749-4.308 3.959-6.529.15-.274.426-.784.28-1.356-.103-.414-.463-.756-.895-.85-.388-.085-.762.041-1.001.34-.238.295-.19.73.106.967.105.084.226.132.35.147-.015.03-.031.061-.05.094-1.023 1.876-2.134 3.735-3.311 5.54-.98-1.589-1.835-3.26-2.548-4.985-.1-.243-.33-.407-.591-.425-.263-.017-.51.115-.641.342L43.59 8.763 40.8 1.858c-.095-.237-.314-.402-.57-.427-.255-.026-.501.091-.642.304l-.06.09-4.031 6.08c-.57-1.746-1.238-3.476-1.995-5.157-.103-.227-.321-.382-.57-.404-.248-.02-.488.093-.628.3-1.52 2.228-3.261 4.318-5.184 6.221l-3.513-5.979c-.13-.22-.378-.352-.63-.34-.255.014-.483.168-.59.401-.878 1.912-1.881 3.784-2.993 5.58-.863-1.666-1.95-3.199-3.243-4.57-.148-.16-.362-.238-.58-.213-.215.024-.407.15-.517.337-1.088 1.867-2.348 3.652-3.752 5.316C9.616 7.477 7.93 5.552 6.245 3.63c-.146-.166-.363-.252-.583-.23-.22.02-.417.145-.53.335C2.972 7.41 1.57 9.867.046 13.886c-.136.356.043.754.398.89" mask="url(#k033yhz53b)"/>
            </g>
        </g>
    </g>
</svg>
