<svg xmlns="http://www.w3.org/2000/svg" xmlns:xlink="http://www.w3.org/1999/xlink" width="50" height="17" viewBox="0 0 50 17">
    <defs>
        <path id="umbedlsyna" d="M0.323 0.432L14.906 0.432 14.906 15.869 0.323 15.869z"/>
    </defs>
    <g fill="none" fill-rule="evenodd">
        <g>
            <g>
                <path fill="#9EBCB9" d="M6.959 5.398l.002-.002c.097-.125.202-.24.306-.357-.151.02-.282.128-.322.285l-.037.142.05-.068z" transform="translate(-275 -920) translate(275 920)"/>
                <path fill="#9EBCB9" d="M12.975 8.939c-2.016 2.596-4.578 4.853-7.411 6.527-.165.098-.339.192-.464.181-.183-.016-.368-.254-.525-.485C2.418 12.013.29 8.27.87 4.382c.132-.88.388-1.533.784-1.996.317-.373.838-.693 1.38-.693.116 0 .233.014.349.046.623.17 1.076.798 1.4 1.326.792 1.288 1.37 2.687 1.72 4.157.041.173.195.296.373.297.181.001.334-.118.379-.29l.08-.313.284-1.106c1.14-1.437 2.82-2.438 4.62-2.75.326-.057.75-.108 1.118.002.588.174 1.064.778 1.214 1.54.245 1.242-.262 2.62-1.597 4.337m2.356-4.487c-.204-1.04-.892-1.877-1.752-2.133-.523-.155-1.06-.093-1.471-.022-1.86.322-3.595 1.316-4.841 2.742-.104.118-.21.233-.305.356.132-.167.374-.196.542-.064.168.132.197.376.065.544-.064.081-.125.164-.185.248-.075.107-.195.164-.316.164-.077 0-.155-.023-.223-.07-.175-.124-.216-.366-.093-.54.024-.034.05-.067.075-.1-.355-1.018-.816-1.995-1.383-2.918-.4-.648-.972-1.424-1.856-1.667-.855-.235-1.868.124-2.522.892-.493.575-.807 1.355-.96 2.383-.62 4.154 1.588 8.06 3.83 11.332.182.268.523.767 1.095.819.03.003.06.004.088.004.352 0 .654-.18.84-.29 2.914-1.723 5.552-4.046 7.627-6.719.934-1.2 2.13-3.02 1.745-4.96" transform="translate(-275 -920) translate(275 920)"/>
                <path fill="#9EBCB9" d="M6.845 6.216c.068.048.146.07.223.07.121 0 .24-.056.316-.163.06-.084.12-.167.185-.249.132-.168.103-.41-.065-.543-.168-.132-.41-.103-.542.064H6.96l-.002.002v.001c-.018.022-.033.046-.05.069-.029.036-.055.072-.082.11-.025.033-.05.065-.075.1-.124.174-.082.415.093.539" transform="translate(-275 -920) translate(275 920)"/>
                <path fill="#7387A4" d="M24.037 7.388c.014.078.035.155.047.234.03.19.194.328.382.328.02 0 .04-.001.059-.005.211-.032.356-.23.323-.44-.055-.367-.148-.732-.262-1.092-.03.047-.064.092-.094.14-.167.269-.317.55-.455.835" transform="translate(-275 -920) translate(275 920)"/>
                <path fill="#7387A4" d="M20.003 4.674c.163-.681.618-1.37 1.156-1.37.024 0 .048 0 .072.004.271.03.529.232.745.425.782.698 1.382 1.593 1.756 2.588.035-.058.067-.119.102-.176.113-.182.351-.237.533-.125.182.113.237.351.125.532.03-.047.064-.092.094-.139.513-.799 1.13-1.513 1.847-2.117.68-.575 1.263-.874 1.834-.944.559-.067 1.29.166 1.538.73.12.272.125.609.114.871-.107 2.745-2.002 5.065-3.84 6.973-.238.245-.439.44-.672.519-.348.118-.781-.035-1.12-.182-1.511-.65-2.77-1.735-3.547-3.054-.82-1.398-1.09-3.05-.737-4.535m3.977 8.3c.33.143.733.287 1.153.287.172 0 .349-.024.524-.084.428-.145.746-.473.978-.714 1.827-1.895 3.94-4.458 4.057-7.48.015-.346.006-.797-.179-1.215-.402-.913-1.482-1.287-2.34-1.185-.727.09-1.439.445-2.239 1.122-.634.534-1.199 1.145-1.687 1.822-.42-.904-1.019-1.713-1.755-2.371-.29-.259-.684-.562-1.174-.618-1.07-.121-1.823.93-2.068 1.957-.399 1.677-.099 3.538.823 5.106.859 1.461 2.246 2.659 3.907 3.373" transform="translate(-275 -920) translate(275 920)"/>
                <path fill="#7387A4" d="M23.419 7.793c.052.023.106.035.16.035.147 0 .288-.085.353-.227.032-.072.07-.142.105-.213.139-.286.288-.567.454-.835h.001c.112-.182.057-.42-.125-.533-.182-.113-.42-.057-.533.124-.035.058-.067.118-.102.177-.184.311-.356.63-.505.96-.088.194-.002.423.192.512" transform="translate(-275 -920) translate(275 920)"/>
                <path fill="#F5C97A" d="M40.92 5.73c.02.052.046.1.079.14.093.114.227.175.362.175.056 0 .113-.01.166-.033.122-.047.4-.212.356-.719-.021-.221-.046-.417-.073-.602-.041.044-.086.083-.127.127-.277.3-.532.608-.763.913" transform="translate(-275 -920) translate(275 920)"/>
                <g transform="translate(-275 -920) translate(275 920) translate(34.831 .13)">
                    <mask id="2q1nwkz6eb" fill="#fff">
                        <use xlink:href="#umbedlsyna"/>
                    </mask>
                    <path fill="#F5C97A" d="M13.751 5.953c-1.325 3.77-4.725 6.619-7.457 8.908-.115.096-.272.228-.387.234-.159.006-.361-.218-.496-.39-1.538-1.941-2.754-4.107-3.616-6.434-.69-1.868-1.22-4.456.183-6.177.453-.556 1.054-.888 1.609-.888.334 0 .686.112 1.017.324.776.497 1.293 1.436 1.546 2.784l.132-.15c.145-.157.39-.167.548-.022.156.145.166.389.022.546.04-.044.085-.083.126-.126.955-1.012 2.056-1.86 3.28-2.511.964-.513 1.7-.673 2.317-.503.714.196 1.313.915 1.492 1.788.147.733.045 1.589-.316 2.617m1.074-2.771c-.24-1.17-1.041-2.104-2.045-2.38-1.077-.297-2.162.18-2.885.566-1.138.605-2.178 1.366-3.1 2.266-.33-1.286-.924-2.211-1.773-2.755C4.565.587 4.069.432 3.587.432c-.797 0-1.602.428-2.209 1.174-1.633 2.003-1.07 4.876-.31 6.933.89 2.405 2.148 4.64 3.735 6.647.164.207.54.683 1.097.683h.045c.376-.02.658-.258.846-.414 2.804-2.35 6.294-5.275 7.69-9.245.408-1.164.521-2.154.344-3.028" mask="url(#2q1nwkz6eb)"/>
                </g>
                <path fill="#F5C97A" d="M40.338 5.858c.07.053.151.078.232.078.118 0 .234-.054.31-.156l.04-.05c.23-.305.486-.611.763-.912.144-.157.135-.402-.022-.547-.157-.145-.402-.134-.547.023-.046.05-.087.1-.132.15-.258.288-.503.58-.722.873-.127.17-.093.413.078.541" transform="translate(-275 -920) translate(275 920)"/>
            </g>
        </g>
    </g>
</svg>
