<svg xmlns="http://www.w3.org/2000/svg" xmlns:xlink="http://www.w3.org/1999/xlink" width="41" height="31" viewBox="0 0 41 31">
    <defs>
        <path id="7yhlq79uqa" d="M0 0.315L40.088 0.315 40.088 30 0 30z"/>
    </defs>
    <g fill="none" fill-rule="evenodd">
        <g>
            <g>
                <g transform="translate(-120 -305) translate(120 305) translate(0 .685)">
                    <mask id="mni1xfhx7b" fill="#fff">
                        <use xlink:href="#7yhlq79uqa"/>
                    </mask>
                    <path fill="#A22E1F" d="M33.365 11.276c-.275 1.44-1.203 2.81-2.544 3.757-.647.455-1.26.684-1.832.684-.228 0-.447-.036-.66-.108-.965-.325-1.543-1.274-1.718-2.82-.11-.963-.19-2.223.17-3.439.147-.49.361-.944.633-1.342-.113-.039-.219-.108-.303-.206-.246-.29-.21-.725.08-.97.591-.503 1.377-.784 2.215-.79.914-.01 1.783.29 2.467.846 1.222.995 1.808 2.718 1.492 4.388m-6.988.372c-.096 1-.319 2.268-1.194 3.192-.523.555-1.293.891-2.056.9h-.029c-.626 0-1.192-.227-1.598-.639-.763-.767-.764-1.9-.698-2.685.12-1.41.442-2.78.952-4.092-.233-.273-.225-.678.035-.933.204-.2.45-.344.721-.446.076-.042.156-.067.242-.079 1.04-.265 2.28.204 2.94 1.14.821 1.155.784 2.631.685 3.642m-5.869 5.386h-.005l-2.15-.013c-.246.06-.497.09-.737.09-.403 0-.772-.063-1.013-.115-.343-.076-.575-.399-.536-.749.038-.349.334-.613.685-.613h.004l1.418.008c.12-.055.14-.114.15-.148.025-.093 0-.266-.019-.393l-.739-5.317c-.199.281-.422.545-.664.787-.267.27-.705.27-.974 0-.268-.269-.268-.705 0-.974.654-.653 1.123-1.51 1.322-2.414.072-.326.367-.552.701-.54.333.013.61.263.654.594l1.065 7.668c.027.186.062.455.021.746l.822.005c.381.003.687.314.684.694-.003.38-.31.684-.689.684m-9.54.865c-2.67-2.044-5.272-4.795-5.316-8.157-.012-.978.54-2.22 1.51-2.09.278.037.53.192.758.36.573.413 1.08.917 1.5 1.485.07-.962.252-1.912.818-2.673.75-1.008 2.424-1.417 3.251-.47.48.547.523 1.343.501 2.071-.099 3.356-1.16 6.68-3.022 9.474M39.621 4.493c-.079-.664-.193-1.376-.65-1.866-.458-.496-1.163-.659-1.825-.79C26.763-.226 15.97-.193 5.602 1.934c-1.595.325-3.3.775-4.323 2.042C.452 5 .23 6.375.115 7.684c-.383 4.467.187 9.011 1.662 13.244.201.576.447 1.18.948 1.524.501.34 1.15.347 1.755.34 4.514-.057 9.026-.216 13.531-.484.918 2.822 2.41 5.457 4.357 7.692 1.071-1.869 2.147-3.737 3.222-5.603.435-.76.906-1.554 1.664-1.992.636-.367 1.394-.433 2.122-.518 2.753-.325 5.468-1.009 8.044-2.037.771-.305 1.576-.68 2.025-1.378.375-.584.443-1.309.493-2 .277-3.99.171-8.009-.317-11.979" mask="url(#mni1xfhx7b)"/>
                </g>
                <path fill="#A22E1F" d="M31.002 8.642c-.27-.22-.6-.38-.953-.465-.072.152-.199.277-.369.343-.717.282-1.307.995-1.578 1.909-.29.976-.217 2.056-.121 2.888.06.547.246 1.49.789 1.672.386.13.898-.143 1.257-.396 1.051-.743 1.776-1.797 1.985-2.89.219-1.16-.186-2.391-1.01-3.061M23.307 8.849c-.623 1.384-1.004 2.852-1.131 4.368-.068.815.027 1.323.303 1.6.19.194.45.229.633.23.386-.004.806-.188 1.07-.468.588-.62.749-1.597.824-2.378.123-1.258-.015-2.12-.437-2.713-.282-.4-.818-.652-1.262-.64" transform="translate(-120 -305) translate(120 305)"/>
                <path fill="#FFF" d="M10.238 7.51c-.566.76-.748 1.71-.819 2.672C9 9.614 8.493 9.11 7.92 8.697c-.229-.168-.48-.323-.758-.36-.97-.13-1.522 1.112-1.51 2.09.044 3.362 2.645 6.113 5.315 8.157 1.863-2.794 2.924-6.117 3.023-9.474.022-.727-.022-1.524-.5-2.072-.828-.946-2.503-.537-3.252.471M20.514 16.341l-.822-.005c-.01.068-.02.137-.038.207-.138.513-.52.897-1.066 1.095-.011.006-.025.012-.04.017-.013.005-.025.014-.04.02l-.016.001c-.045.014-.093.02-.138.03l2.149.013h.005c.379 0 .687-.305.69-.684.003-.38-.303-.69-.684-.694" transform="translate(-120 -305) translate(120 305)"/>
                <path fill="#FFF" d="M18.3 17.706c-.084 0-.165-.02-.242-.05-.027-.01-.05-.023-.073-.036-.047-.025-.091-.053-.131-.088-.026-.022-.047-.044-.07-.07-.03-.034-.055-.072-.078-.114-.018-.033-.037-.063-.05-.1-.003-.008-.01-.015-.012-.024-.01-.026-.003-.052-.01-.078-.007-.043-.024-.083-.024-.13 0-.014.007-.026.007-.04.002-.035.014-.067.02-.101.013-.055.023-.11.048-.16.012-.024.03-.045.047-.07.032-.05.065-.097.11-.137.022-.02.048-.032.072-.05.049-.033.098-.064.155-.084.009-.003.015-.011.025-.014.033-.01.055-.022.08-.032l-1.418-.008h-.004c-.35 0-.646.263-.684.613-.04.35.192.673.536.749.24.052.609.115 1.012.115.24 0 .492-.031.738-.091.045-.011.093-.015.137-.03-.063.019-.128.03-.19.03" transform="translate(-120 -305) translate(120 305)"/>
                <path fill="#FFF" d="M17.61 17.017c0 .046.017.086.024.129-.009-.057-.02-.114-.017-.171 0 .015-.008.027-.008.042" transform="translate(-120 -305) translate(120 305)"/>
                <path fill="#FFF" d="M18.068 16.374c-.057.02-.105.05-.154.085-.025.017-.05.03-.073.049-.044.04-.078.088-.11.138-.016.024-.034.045-.047.07-.024.05-.035.104-.047.159-.006.034-.018.066-.02.1-.004.057.008.114.017.17.006.027 0 .053.01.079.002.009.008.016.012.025.013.036.031.066.05.099.022.042.048.08.08.115.02.025.042.047.067.069.04.035.084.063.131.088.024.013.047.027.073.037.077.029.158.049.243.049.063 0 .127-.011.191-.03.005-.001.011 0 .016-.002.015-.005.027-.013.041-.018l.04-.017c.546-.198.927-.582 1.065-1.095.02-.07.028-.14.038-.207.041-.291.006-.56-.02-.746-.357-2.557-.712-5.114-1.066-7.668-.045-.331-.32-.581-.654-.594-.334-.012-.629.214-.7.54-.2.903-.669 1.76-1.323 2.414-.268.269-.268.705 0 .974.27.269.706.269.974 0 .242-.242.465-.506.664-.787l.74 5.317c.018.127.043.3.018.393-.01.034-.03.093-.15.148-.026.01-.047.022-.08.032-.01.003-.016.01-.026.014M22.223 7.922c.004-.007.002-.016.006-.022.064-.123.168-.207.28-.27-.27.103-.515.246-.72.447-.26.254-.267.659-.035.932.14-.361.287-.72.457-1.071.002-.006.009-.01.012-.016" transform="translate(-120 -305) translate(120 305)"/>
                <path fill="#FFF" d="M25.006 12.2c-.075.782-.236 1.76-.824 2.38-.264.28-.684.462-1.071.467-.181 0-.441-.036-.632-.23-.276-.278-.371-.786-.303-1.6.127-1.517.508-2.985 1.13-4.369.445-.012.98.241 1.263.64.42.593.56 1.455.437 2.712m-2.254-4.648c.13-.017.264-.009.39.053.323.16.466.54.337.87-.098.263-.351.451-.648.451-.38 0-.688-.309-.688-.689 0-.107.03-.218.08-.315-.003.006-.01.01-.012.016-.17.351-.317.71-.457 1.071-.51 1.311-.832 2.681-.951 4.092-.067.785-.066 1.918.697 2.685.406.412.973.64 1.599.64h.028c.764-.01 1.533-.346 2.057-.9.875-.925 1.097-2.193 1.193-3.193.1-1.01.137-2.487-.685-3.642-.661-.935-1.901-1.405-2.94-1.139" transform="translate(-120 -305) translate(120 305)"/>
                <path fill="#FFF" d="M22.229 7.9c-.005.006-.002.015-.006.022-.05.097-.08.208-.08.315 0 .38.308.689.688.689.297 0 .55-.188.648-.451.129-.33-.014-.71-.337-.87-.127-.061-.26-.07-.39-.053-.086.01-.166.037-.242.079-.114.062-.218.146-.282.269M32.012 11.704c-.21 1.092-.934 2.146-1.984 2.889-.36.253-.871.527-1.258.396-.543-.182-.73-1.125-.79-1.672-.095-.832-.168-1.912.122-2.888.27-.914.86-1.627 1.578-1.91.17-.065.297-.19.369-.342.354.086.684.245.953.465.824.67 1.23 1.9 1.01 3.062m-.14-4.13c-.682-.557-1.551-.856-2.465-.847-.838.007-1.624.288-2.215.79-.291.246-.326.68-.08.97.084.099.189.168.302.207-.271.398-.486.85-.632 1.342-.362 1.216-.282 2.476-.17 3.438.174 1.547.753 2.496 1.717 2.82.213.073.433.109.66.109.572 0 1.185-.23 1.833-.684 1.34-.95 2.268-2.317 2.544-3.757.316-1.67-.27-3.393-1.493-4.388" transform="translate(-120 -305) translate(120 305)"/>
            </g>
        </g>
    </g>
</svg>
