<svg xmlns="http://www.w3.org/2000/svg" xmlns:xlink="http://www.w3.org/1999/xlink" width="55" height="11" viewBox="0 0 55 11">
    <defs>
        <path id="bted739npa" d="M0 0.413L54.797 0.413 54.797 9.788 0 9.788z"/>
    </defs>
    <g fill="none" fill-rule="evenodd">
        <g>
            <g>
                <g transform="translate(-273 -315) translate(273 315) translate(0 .053)">
                    <mask id="mucqn34xqb" fill="#fff">
                        <use xlink:href="#bted739npa"/>
                    </mask>
                    <path fill="#FCF1C5" d="M19.539 3.149c.223-.285.583-.442.943-.48-.445-.312-.82-.865-.63-1.374.142-.373.554-.588.952-.615.388-.024.767.093 1.137.213.172-.151.365-.269.59-.308.446-.078.97.383.764.785.292-.405.99-.346 1.283.059.293.405.195 1.009-.144 1.376.36-.229.916-.017 1.033.393.117.411-.242.884-.67.88.324.14.482.571.325.887-.157.315-.598.448-.904.273-.18.513-.62.967-1.161 1.01-.54.045-1.103-.452-1.003-.985-.27.224-.551.452-.889.542-.337.09-.75-.001-.928-.302-.21-.353-.02-.801.172-1.166-.277.235-.748.13-.947-.172-.2-.303-.145-.73.077-1.016M.642 9.789h9.103c.074-.224.204-.42.398-.549.334-.22.766-.192 1.164-.156-.326-.422-.89-.7-1-1.222-.111-.528.355-1.05.884-1.159.529-.11 1.074.096 1.535.378-.17-.445-.072-.99.269-1.323.34-.333.912-.414 1.315-.16.402.253.572.834.342 1.25.231-.329.507-.686.906-.74.46-.061.893.367.93.83.036.464-.251.91-.64 1.167.27-.01.538.055.773.183.273.15.512.423.5.735-.011.207-.178.395-.367.45.175.055.332.169.446.315h11.27c-.089-.529.252-1.14.792-1.256-.55-.128-.878-.83-.624-1.335s1.013-.66 1.445-.296c.03-.59.549-1.116 1.138-1.152.59-.037 1.17.42 1.273 1.003.307-.244.641-.457.992-.634.109-.053.226-.104.346-.093.172.017.305.156.405.298.214.3.364.669.315 1.035-.046.333-.295.649-.617.713.434-.032.82.362 1.015.77.08.171.146.364.11.55-.04.186-.216.356-.403.325.013.024.026.048.037.072h12.13c-.048-.331.025-.68.229-.947-.534-.028-.974-.593-.87-1.118.105-.526.726-.88 1.231-.703-.426-.404-.123-1.242.452-1.366.576-.125 1.166.376 1.246.959.36-.432.95-.733 1.484-.557.532.177.799.978.362 1.332.273-.077.561-.155.84-.1.28.054.548.283.545.569-.005.342-.363.557-.673.703.491.131.744.755.56 1.228h1.925c.354 0 .642-.287.642-.642v-8.09c0-.355-.288-.643-.642-.643H43.08c.062.085.11.18.138.287.101.379-.114.817-.478.967.303.015.612.146.784.396.17.251.164.628-.06.833-.182.168-.502.16-.674-.005.262.442.18 1.071-.206 1.418-.425.381-1.151.357-1.55-.052-.189.368-.467.703-.84.882-.374.178-.85.173-1.175-.08-.328-.253-.44-.772-.19-1.1-.28.008-.558.14-.832.087-.445-.087-.668-.634-.572-1.074.097-.442.416-.795.724-1.127-.357.014-.71-.23-.82-.571-.097-.298.001-.648.227-.861H7.12c-.004.227-.076.45-.221.624.606-.277 1.439.031 1.635.667.175.565-.293 1.23-.856 1.277.358.083.634.485.605.87-.036.458-.395.84-.811 1.04-.509.243-1.273.16-1.443-.38.095.521-.29 1.075-.806 1.19-.518.116-1.088-.202-1.286-.693-.175-.438-.052-.967.27-1.31-.399.363-.858.708-1.386.676-.71-.042-1.22-.832-1.104-1.532.117-.699.726-1.246 1.405-1.45-.48.12-.991-.298-1.05-.79-.008-.063-.01-.126-.003-.19H.642C.287.413 0 .702 0 1.056v8.091c0 .355.287.642.642.642" mask="url(#mucqn34xqb)"/>
                </g>
                <path fill="#9D7B8D" d="M51.67 8.613c.31-.146.669-.36.672-.703.004-.286-.264-.516-.544-.57-.279-.054-.566.024-.84.1.436-.353.17-1.154-.363-1.332-.532-.175-1.123.126-1.483.558-.08-.583-.67-1.084-1.246-.96-.576.125-.879.963-.452 1.367-.505-.177-1.127.177-1.23.703-.105.526.334 1.09.87 1.119-.205.266-.278.615-.23.946h5.407c.184-.474-.07-1.097-.562-1.228" transform="translate(-273 -315) translate(273 315)"/>
                <path fill="#C97971" d="M37.329 1.327c.11.34.463.586.82.572-.308.33-.627.684-.724 1.126-.096.44.127.987.571 1.074.275.052.553-.079.833-.088-.25.329-.138.848.19 1.1.326.254.801.26 1.174.08.374-.178.652-.513.841-.88.399.408 1.125.433 1.55.05.387-.346.468-.976.206-1.417.172.165.492.173.674.005.224-.205.23-.582.06-.832-.172-.25-.481-.382-.784-.397.364-.15.58-.588.478-.967-.029-.107-.076-.202-.138-.287h-5.524c-.226.213-.324.563-.227.86" transform="translate(-273 -315) translate(273 315)"/>
                <path fill="#7383AF" d="M35.06 9.444c.036-.186-.03-.378-.11-.55-.195-.408-.58-.802-1.015-.77.322-.064.571-.38.616-.713.05-.366-.1-.735-.314-1.035-.1-.142-.233-.281-.405-.298-.12-.012-.237.04-.347.094-.35.176-.684.389-.99.633-.104-.582-.683-1.04-1.274-1.003-.59.036-1.108.562-1.138 1.152-.432-.365-1.19-.21-1.445.296-.254.504.073 1.207.624 1.335-.54.116-.88.727-.792 1.256h6.224l-.037-.072c.187.031.363-.139.402-.325" transform="translate(-273 -315) translate(273 315)"/>
                <path fill="#9B7C92" d="M20.409 4.39c-.192.365-.382.813-.172 1.166.178.301.59.392.928.302.338-.09.62-.318.89-.542-.102.533.462 1.03 1.002.985.54-.043.981-.497 1.161-1.01.306.175.746.042.904-.273.157-.316-.001-.747-.324-.887.427.004.786-.469.669-.88-.117-.41-.672-.622-1.033-.393.339-.368.437-.971.144-1.376-.293-.404-.992-.464-1.284-.059.206-.402-.317-.863-.762-.785-.226.039-.42.157-.591.309-.37-.121-.749-.238-1.137-.214-.398.027-.81.242-.951.615-.191.509.184 1.061.629 1.374-.36.038-.72.195-.943.48-.222.286-.277.713-.077 1.016.2.302.67.407.947.172" transform="translate(-273 -315) translate(273 315)"/>
                <path fill="#D47478" d="M16.468 9.492c.098-.008.194.005.286.035.19-.055.356-.244.366-.451.013-.312-.226-.585-.5-.735-.234-.128-.503-.193-.771-.183.388-.258.675-.703.638-1.167-.036-.463-.469-.891-.929-.83-.399.054-.675.411-.906.74.23-.416.06-.997-.342-1.25-.403-.254-.975-.173-1.315.16-.34.334-.44.878-.269 1.323-.461-.281-1.007-.487-1.534-.378-.53.11-.996.63-.884 1.159.11.522.673.8 1 1.222-.4-.036-.831-.063-1.165.156-.194.128-.325.325-.398.548H17.2c-.114-.146-.271-.26-.446-.314-.096.028-.198.021-.286-.035" transform="translate(-273 -315) translate(273 315)"/>
                <path fill="#6F87AE" d="M3.122 1.445c-.68.204-1.288.751-1.405 1.45-.117.7.394 1.49 1.104 1.532.528.033.988-.313 1.387-.675-.323.341-.446.87-.271 1.309.198.49.768.809 1.286.693.516-.116.901-.669.806-1.19.17.539.934.622 1.443.38.416-.2.775-.582.81-1.04.03-.385-.246-.787-.604-.87.563-.048 1.03-.712.856-1.277-.197-.636-1.03-.944-1.635-.667.145-.175.217-.396.22-.624H2.07c-.006.063-.005.126.003.189.06.492.57.91 1.05.79" transform="translate(-273 -315) translate(273 315)"/>
            </g>
        </g>
    </g>
</svg>
