<svg xmlns="http://www.w3.org/2000/svg" xmlns:xlink="http://www.w3.org/1999/xlink" width="33" height="25" viewBox="0 0 33 25">
    <defs>
        <path id="kodx1z2lga" d="M0.001 0L32.385 0 32.385 23.361 0.001 23.361z"/>
    </defs>
    <g fill="none" fill-rule="evenodd">
        <g>
            <g transform="translate(-203 -993) translate(203 993)">
                <mask id="uck61d828b" fill="#fff">
                    <use xlink:href="#kodx1z2lga"/>
                </mask>
                <path fill="#778468" d="M26.92 15.123c-1.997 1.861-4.685 4.013-7.743 4.12-.627.022-1.118.548-1.095 1.175.005.193.06.375.15.53-2.244.23-4.416.201-6.55-.25-4.502-.947-9.328-4.644-9.407-9.627-.017-1.003.181-1.893.572-2.573.571-.996 1.67-1.727 2.563-2.252 2.958-1.734 6.537-2.948 10.634-3.61 1.508-.24 2.878-.363 4.128-.363 2.302 0 4.201.413 5.823 1.247 2.607 1.337 4.836 4.624 3.896 7.605-.485 1.536-1.713 2.83-2.97 3.998m5.136-3.315c1.315-4.166-1.523-8.514-5.022-10.309-2.956-1.521-6.56-1.874-11.35-1.107-4.38.706-8.223 2.016-11.425 3.894-1.139.667-2.55 1.622-3.383 3.08-.605 1.048-.9 2.307-.874 3.741C.1 17.268 5.85 21.794 11.21 22.924c1.465.309 2.945.438 4.414.438 4.25 0 8.423-1.08 11.95-1.992.61-.157.974-.777.818-1.384-.157-.607-.778-.974-1.385-.817-.789.205-1.564.401-2.33.586 1.44-.875 2.708-1.959 3.792-2.969 1.485-1.379 2.945-2.937 3.587-4.978" mask="url(#uck61d828b)"/>
            </g>
        </g>
    </g>
</svg>
