<svg xmlns="http://www.w3.org/2000/svg" xmlns:xlink="http://www.w3.org/1999/xlink" width="60" height="53" viewBox="0 0 60 53">
    <defs>
        <path id="7olglsqxza" d="M0.857 0.724L26.339 0.724 26.339 23.481 0.857 23.481z"/>
        <path id="ou0a2zaw4c" d="M0 1.007L34.202 1.007 34.202 16.115 0 16.115z"/>
    </defs>
    <g fill="none" fill-rule="evenodd">
        <g>
            <g>
                <path fill="#EDCD7E" d="M50.47 5.193c-.419-.836-1.15-1.008-1.993-.685-1.096.168-1.967.874-2.261 2.076-.403 1.644 1.487 3.493 2.99 2.715.508-.263.873-.742 1.127-1.254.438-.884.58-1.97.137-2.852" transform="translate(-30 -376) translate(30 376)"/>
                <path fill="#A082B1" d="M38.245 8.683c-.762 1.104-.698 2.399.595 2.762 1.306.367 2.815-.95 2.498-2.27-.317-1.32-2.46-1.706-3.12-.52" transform="translate(-30 -376) translate(30 376)"/>
                <g transform="translate(-30 -376) translate(30 376) translate(11.786 .347)">
                    <mask id="wo9cbd0ysb" fill="#fff">
                        <use xlink:href="#7olglsqxza"/>
                    </mask>
                    <path fill="#9378A2" d="M14.777 15.158c3.505 2.737 6.997 5.493 10.424 8.323l1.138-3.157c-.959-1.059-1.913-2.122-2.879-3.174-1.952-2.13-3.924-4.254-6.104-6.152C13.682 7.797 9.474 5.282 5.29 2.787 4.145 2.105 2.308 1.407.857.724 1.992 2.927 3.17 5.111 4.391 7.267l-.136-.014c.785.318 1.493.86 2.17 1.388 2.784 2.173 5.567 4.346 8.352 6.517" mask="url(#wo9cbd0ysb)"/>
                </g>
                <path fill="#98B3BE" d="M35.939 26.742l1.049-2.914c-3.429-2.83-6.92-5.586-10.425-8.322L18.21 8.989c-.676-.528-1.384-1.07-2.17-1.388-2.92-.3-5.864-.386-8.795-.26 3.182 1.654 6.186 3.652 9.159 5.666 6.592 4.464 13.095 9.055 19.535 13.735" transform="translate(-30 -376) translate(30 376)"/>
                <path fill="#F4CF87" d="M34.202 29.428c.233-.107.453-.233.64-.41.414-.398.622-.958.816-1.5l.28-.776c-6.44-4.68-12.942-9.271-19.535-13.736-2.972-2.014-5.975-4.012-9.158-5.664-.687.029-1.37.07-2.055.123 1.088 2.565 2.073 5.174 2.954 7.818 1.589 1.143 3.424 1.972 5.213 2.802 7.178 3.335 14.138 7.138 20.845 11.343" transform="translate(-30 -376) translate(30 376)"/>
                <g transform="translate(-30 -376) translate(30 376) translate(0 14.276)">
                    <mask id="itoik3j8kd" fill="#fff">
                        <use xlink:href="#ou0a2zaw4c"/>
                    </mask>
                    <path fill="#C66878" d="M34.202 15.152C27.495 10.947 20.535 7.144 13.357 3.81c-1.789-.83-3.624-1.659-5.213-2.802.052.153.102.306.152.46L0 1.662c10.288 4.723 21.267 8.363 30.713 14.454.799-.2 1.597-.401 2.395-.603.37-.093.749-.201 1.094-.36" mask="url(#itoik3j8kd)"/>
                </g>
                <path fill="#EDCD7E" d="M54.065 31.932l5.59-7c.508-.636-.061-1.56-.858-1.392L48.72 25.656c-.536.114-1.101.225-1.622.061-.632-.198-1.074-.755-1.473-1.284l-5.07-6.567c-.42-.544-1.273-.409-1.507.236l-.924 2.57-1.137 3.157-1.05 2.912-.28.777c-.194.541-.402 1.103-.816 1.5-.187.177-.407.302-.64.41-.345.16-.723.266-1.095.36l-2.394.604c-2.18.55-4.36 1.099-6.538 1.65-.756.19-.898 1.198-.229 1.59l7.201 4.224c.818.48 1.674.998 2.124 1.83.532.985.382 2.183.217 3.29l-1.32 8.872c-.117.777.776 1.297 1.395.811l8.49-6.666c.755-.594 1.565-1.21 2.52-1.317.846-.094 1.676.228 2.467.544l7.919 3.169c.68.27 1.368-.366 1.153-1.064l-3.15-10.187c-.242-.786-.489-1.601-.387-2.418.132-1.06.825-1.953 1.49-2.788" transform="translate(-30 -376) translate(30 376)"/>
            </g>
        </g>
    </g>
</svg>
