<svg xmlns="http://www.w3.org/2000/svg" xmlns:xlink="http://www.w3.org/1999/xlink" width="42" height="44" viewBox="0 0 42 44">
    <defs>
        <path id="gl0i2k5nba" d="M0.402 0.55L24.126 0.55 24.126 27 0.402 27z"/>
    </defs>
    <g fill="none" fill-rule="evenodd">
        <g>
            <g>
                <path fill="#96B5BE" d="M36.384 5.432c-.059-.027-.105-.074-.133-.132L33.843.158c-.105-.221-.425-.207-.51.024L31.324 5.73c-.028.074-.086.132-.157.162l-4.046 1.602c-.234.093-.23.426.006.515l4.39 1.617c.083.03.143.097.168.18l2.252 7.47c.077.262.446.262.526 0l2.157-7.115c.026-.077.083-.141.158-.174l4.324-1.807c.22-.091.228-.4.011-.505l-4.729-2.243z" transform="translate(-39 -830) translate(39 830)"/>
                <g transform="translate(-39 -830) translate(39 830) translate(10 16.253)">
                    <mask id="24nl9470bb" fill="#fff">
                        <use xlink:href="#gl0i2k5nba"/>
                    </mask>
                    <path fill="#CF7677" d="M23.89 11.613l-8.27-1.201c-.105-.014-.193-.09-.223-.188L12.35.742c-.083-.26-.449-.254-.526.005l-2.668 9.02c-.025.088-.096.16-.185.187L.598 12.492c-.25.075-.264.422-.024.518l8.361 3.368c.074.03.132.09.16.168l3.334 10.262c.085.262.457.254.528-.011l2.817-10.375c.022-.075.072-.138.14-.174l8.061-4.117c.24-.121.18-.48-.085-.518" mask="url(#24nl9470bb)"/>
                </g>
                <path fill="#F7C666" d="M6.567 13.01l.523 8.052c.02.301.436.356.536.072l2.24-6.518c.03-.09.104-.156.195-.178l7.868-1.886c.259-.06.289-.416.044-.52L10.94 9.064c-.096-.039-.159-.127-.168-.232l-.628-7.641c-.025-.295-.435-.35-.535-.069L7.113 8.091c-.036.099-.124.171-.229.182l-6.638.75c-.271.03-.339.394-.097.518l6.27 3.243c.085.044.142.13.148.226" transform="translate(-39 -830) translate(39 830)"/>
            </g>
        </g>
    </g>
</svg>
