<svg xmlns="http://www.w3.org/2000/svg" xmlns:xlink="http://www.w3.org/1999/xlink" width="44" height="45" viewBox="0 0 44 45">
    <defs>
        <path id="jdqbibd3ea" d="M0 0.01L43.455 0.01 43.455 44 0 44z"/>
    </defs>
    <g fill="none" fill-rule="evenodd">
        <g>
            <g>
                <path fill="#FAF1D8" d="M5.188 30.18l.047.02c-.033-.01-.058-.032-.086-.05l.04.03M5.133 18.54l.001-.005c0 .002-.002.003-.004.005h.003zM20.09 7.792l.037.066c.023.04.048.08.076.116.008.008.028.033.033.037l.065.066.051.045.019.012c.03.02.062.037.093.056l.017.01c.048.019.099.034.15.043l.008.003.021-.002c.025 0 .049.002.074 0 .038-.002.067-.008.115-.02.207-.06.409-.231.525-.402.135-.198.22-.424.229-.636.005-.14-.002-.203-.045-.338-.017-.054-.023-.066-.054-.12-.01-.019-.08-.11-.045-.071-.036-.042-.076-.081-.118-.116l-.035-.026-.077-.046c-.02-.011-.042-.022-.064-.031.016.006.055.017-.012-.005-.05-.016-.1-.03-.153-.042l-.013-.003-.029-.003-.069-.002c-.026 0-.052.002-.078.004l-.013.004-.067.018c-.012.003-.013.002-.019.003l-.006.005c-.048.022-.09.05-.133.081-.046.034-.099.046-.153.048-.183.178-.32.38-.385.611-.057.204-.053.354.03.575l.026.06M5.188 36.18l.047.02c-.033-.01-.058-.032-.086-.05l.04.03z" transform="translate(-198 -830) translate(198 830)"/>
                <g transform="translate(-198 -830) translate(198 830) translate(0 .568)">
                    <mask id="9wrgib6b8b" fill="#fff">
                        <use xlink:href="#jdqbibd3ea"/>
                    </mask>
                    <path fill="#FAF1D8" d="M38.726 37.833c-2.688.114-5.378.182-8.07.209-4.51.044-9.02-.03-13.53-.137-4.657-.11-9.314-.249-13.973-.327-.309-.005-.309-.484 0-.478 2.68.044 5.36.108 8.04.176 4.507.115 9.013.242 13.52.285 4.672.044 9.345-.009 14.013-.207.308-.012.307.466 0 .48M5.788 35.528c-.004.023-.015.043-.025.065-.007.019-.014.04-.025.056-.01.016-.046.061-.057.075l-.003.003-.007.006-.003.003c-.01.01-.061.048-.073.056l-.006.005-.008.004-.087.037h-.003c-.006.003-.011.004-.017.005-.031.006-.07.01-.102.014h-.025l-.003-.001-.028.002c-.008.002-.016.002-.024.002-.046-.003-.098-.007-.142-.024-.023-.009-.074-.027-.106-.046-.031-.02-.06-.044-.088-.068-.007-.005-.012-.011-.016-.017-.013-.015-.053-.06-.068-.09-.029-.06-.06-.132-.055-.2 0-.014.003-.028.004-.043.006-.058.011-.116.018-.173 0-.065.016-.126.048-.181l.057-.073c.045-.044.097-.075.158-.092l.095-.013c.05-.002.096.008.139.03.044.015.083.04.115.075l.004.006c.03.01.059.023.087.037l.023.014c.026.02.054.04.08.062l.01.01.01.01c.021.025.042.053.061.08.006.007.011.015.015.023.015.03.028.063.04.094l.004.012c.024.084.018.152.003.235M3.2 31.484c2.632.069 5.263.114 7.895.14 4.561.046 9.122.033 13.683-.005 4.58-.037 9.159-.098 13.738-.146.309-.003.308.476 0 .48-2.582.026-5.164.056-7.747.085-4.54.05-9.083.094-13.624.094-4.65 0-9.298-.048-13.945-.17-.308-.008-.309-.486 0-.478m2.587-1.956c-.004.023-.015.044-.025.066-.007.019-.014.039-.025.056-.01.015-.046.061-.057.075-.002 0-.002.002-.003.003l-.007.006-.003.003c-.01.009-.061.048-.073.056l-.006.004-.008.004-.087.037-.003.001-.017.005-.102.014h-.008l-.017-.001h-.004l-.027.002-.024.001c-.046-.002-.098-.006-.142-.023-.023-.01-.074-.028-.106-.047-.031-.019-.06-.043-.088-.067-.007-.006-.012-.011-.016-.017-.013-.016-.053-.06-.068-.091-.029-.06-.06-.13-.055-.2 0-.014.003-.028.004-.043l.018-.173c0-.065.016-.125.048-.18.019-.025.037-.05.057-.073.045-.045.097-.076.158-.093l.095-.013c.05-.001.096.008.139.032.044.013.083.038.115.074l.004.005c.03.011.059.023.087.038.008.003.015.008.023.013l.08.062.01.01.01.01c.021.026.042.053.061.08l.015.024c.015.03.028.063.04.094l.004.012c.024.083.018.151.003.234M3.2 25.938c2.693.088 5.385.149 8.08.186 4.544.062 9.09.054 13.635.014 4.499-.04 8.996-.11 13.494-.165.308-.004.307.474 0 .478-2.553.032-5.105.068-7.657.1-4.491.059-8.982.104-13.474.096-4.693-.008-9.387-.077-14.078-.23-.308-.01-.309-.489 0-.479m2.629-2.313c-.005.05-.009.106-.027.155-.014.04-.031.08-.052.117-.003.023-.004.047-.01.07-.01.04-.03.078-.047.115-.005.012-.011.023-.019.033-.021.029-.048.071-.08.097-.03.027-.064.056-.1.076-.027.014-.11.043-.09.038-.064.017-.127.017-.191 0l-.043-.018c-.025-.01-.044-.02-.066-.033l-.118-.07c-.013-.008-.02-.022-.031-.031-.028-.016-.06-.025-.083-.048l-.056-.072c-.026-.042-.04-.086-.043-.134-.01-.048-.008-.096.007-.143.01-.048.033-.095.053-.138.008-.017.016-.034.027-.05.027-.038.055-.076.087-.11.033-.034.075-.063.112-.09.014-.011.03-.02.046-.028.033-.016.068-.03.102-.044.04-.015.084-.018.128-.015.014-.006.024-.019.04-.024l.095-.012c.05-.002.096.008.138.03.045.015.083.04.116.075.035.032.06.071.074.115.022.043.033.09.03.139m-2.135-3.578c2.496.084 4.991.16 7.488.224 4.407.114 8.815.197 13.225.248 4.435.05 8.87.069 13.307.056.308-.001.307.477 0 .478-2.497.007-4.994.005-7.491-.008-4.409-.022-8.818-.077-13.226-.163-4.435-.087-8.87-.206-13.303-.357-.307-.01-.307-.489 0-.478M5.83 18.05c-.005.05-.009.106-.027.156-.014.039-.031.078-.052.116-.003.023-.004.047-.01.07-.01.04-.03.078-.047.115-.005.012-.011.022-.019.033-.021.03-.048.07-.08.098-.03.026-.064.056-.1.075-.027.014-.11.043-.09.038-.064.017-.127.017-.191 0l-.043-.018c-.025-.01-.044-.019-.066-.032l-.118-.07c-.013-.009-.02-.022-.031-.032-.028-.015-.06-.025-.083-.048l-.056-.073c-.026-.04-.04-.085-.043-.133-.01-.048-.008-.095.007-.143.01-.047.033-.094.053-.138.008-.016.016-.033.027-.049.027-.039.055-.077.087-.11.033-.035.075-.064.112-.09.014-.012.03-.021.046-.03.033-.015.068-.03.102-.043.04-.015.084-.017.128-.015.014-.006.024-.02.04-.023l.095-.013c.05-.002.096.009.138.03.045.016.083.04.116.075.035.033.06.071.074.116.022.042.033.089.03.138m-2.084-3.183c2.48.086 4.96.16 7.443.222 4.417.111 8.837.185 13.256.221 4.406.036 8.813.034 13.22-.004.307-.003.307.476 0 .478-2.483.022-4.965.032-7.446.03-4.42-.003-8.84-.043-13.259-.122-4.405-.078-8.81-.194-13.214-.347-.308-.01-.308-.49 0-.478m.995-2.363c.015-.045.034-.09.058-.133.008-.017.019-.032.03-.048.04-.054.082-.107.127-.158.063-.07.161-.1.254-.105.095-.004.185.043.253.105.035.033.06.072.075.116v.003c.014.007.03.01.042.02.033.024.07.047.096.08.057.066.096.125.12.211.005.02.007.045.01.065.002.019.007.042.007.063 0 .041-.005.083-.016.122l-.004.01c-.007.021-.027.068-.037.088l-.008.015c-.042.064-.058.08-.111.12-.051.04-.081.057-.15.078-.038.012-.08.016-.12.017-.01 0-.021-.002-.033-.004-.003.001-.005.004-.008.004-.003.002-.007.002-.011.003-.027.004-.073.012-.1.013h-.02c-.036-.004-.076-.007-.11-.017-.034-.009-.069-.026-.1-.04-.008-.004-.016-.008-.022-.013-.029-.02-.059-.043-.085-.065l-.016-.017c-.022-.027-.046-.056-.065-.086l-.014-.023c-.016-.032-.03-.067-.042-.1-.015-.043-.018-.093-.023-.135-.002-.017-.003-.032-.001-.049.005-.045.009-.095.024-.14M8.01 6.365c.165-.515.406-1.052.853-1.351.246-.166.558-.228.832-.095.253.121.376.35.46.6.158-.315.357-.612.603-.876.204-.22.502-.074.6.158.454 1.077.696 2.23.73 3.397.014.463-.704.46-.717 0-.026-.877-.19-1.736-.468-2.562-.26.427-.418.916-.449 1.416.029.268.05.536.056.804.008.4-.631.497-.705.096-.007-.032-.008-.064-.013-.096l-.002-.013c-.033-.219-.049-.438-.046-.656-.033-.34-.08-.68-.157-1.016-.032-.14-.065-.28-.107-.418-.015-.05-.04-.174-.101-.193-.086-.026-.246.155-.292.21-.303.358-.446.91-.546 1.358-.054.244-.086.491-.101.74.023.27.032.542.016.814-.03.467-.675.456-.718 0-.025-.252-.025-.505-.015-.758-.032-.392-.105-.78-.23-1.161-.11-.338.269-.524.517-.398m4.006.46c.082-.801.662-1.508 1.446-1.724.411-.112.882-.073 1.21.219.093.082.154.181.2.286-.006-.07-.015-.142-.02-.213-.026-.407.527-.452.68-.142.114-.222.277-.41.522-.49.472-.156.844.17 1.062.556.205-.443.606-.798 1.113-.82.529-.022.967.371 1.199.814.086.164.142.339.192.516.277-.405.684-.721 1.132-.913.18-.077.384-.056.492.129.02.033.03.073.037.115.336.1.642.317.824.609.4.641.204 1.49-.258 2.04-.468.558-1.28.795-1.899.337-.323-.24-.54-.593-.624-.976-.203-.383-.278-.805-.406-1.218-.085-.275-.254-.644-.564-.723-.3-.076-.554.225-.627.487-.122.433.064.9.22 1.3.149.38-.48.636-.656.276l-.614-1.253c-.047-.096-.251-.654-.41-.59-.08.03-.137.198-.161.272-.06.182-.095.376-.122.564-.06.41-.06.828-.022 1.24.026.274-.234.385-.449.328-.008.04-.018.08-.043.122-.472.784-1.498 1.112-2.336.747-.707-.31-1.198-1.12-1.118-1.894m11.772.508c.047-.514.132-1.025.254-1.526.046-.19.258-.301.441-.25.191.051.297.252.251.441-.099.405-.175.816-.218 1.232-.021.206-.036.412-.044.62-.004.1-.01.202-.005.302l.003.04.004.015v.004l.014.003c.066.014-.013.006.06.009.095.004.188.01.283.01.172-.001.348-.012.513-.04.372-.063.73-.18 1.066-.356.171-.09.389-.045.49.13.095.161.043.4-.128.49-.424.223-.88.379-1.354.446-.242.034-.484.054-.729.045-.25-.008-.511-.03-.706-.206-.182-.165-.233-.41-.235-.648-.001-.253.017-.509.04-.761m3.171-1.53c.05-.195.255-.293.442-.25.192.043.297.26.25.441-.09.358-.121.676-.097 1.064.007.114.018.206.035.3.152-.04.312.024.403.16.251.37.59.675.982.89.32.175.856.38 1.134.038.085-.104.1-.209.026-.33-.095-.159-.266-.268-.417-.368-.485-.325-.974-.646-1.461-.97-.159-.105-.235-.318-.13-.49.502-.817 1.537-1.225 2.459-.95.442.133.253.825-.191.693-.493-.148-1.053-.008-1.428.355.413.27.83.538 1.233.823.396.28.761.663.69 1.186-.067.483-.498.854-.968.93-.534.083-1.07-.131-1.511-.419-.24-.156-.45-.345-.645-.55-.05.085-.132.155-.22.183-.199.064-.374-.076-.442-.25-.31-.787-.353-1.668-.144-2.485m4.243-.354c.314.011.627 0 .939-.034l.09-.01.083-.013c.078-.012.155-.025.232-.04.154-.03.306-.066.457-.106.195-.053.382.064.442.25.06.184-.07.393-.251.442-.22.059-.442.103-.666.14.014.848.073 1.696.199 2.535.028.193-.045.385-.25.442-.172.046-.414-.059-.443-.251-.131-.877-.2-1.76-.22-2.647-.204.012-.408.017-.612.01-.201-.007-.35-.159-.358-.36-.01-.188.17-.365.358-.358M36.507.01H6.947C3.127.01 0 3.136 0 6.957v30.095C0 40.873 3.126 44 6.947 44h29.56c3.822 0 6.948-3.126 6.948-6.947V6.958c0-3.821-3.126-6.948-6.948-6.948" mask="url(#9wrgib6b8b)"/>
                </g>
                <path fill="#FAF1D8" d="M13.836 7.005c.096-.025.098-.026.166-.069.034-.02.063-.045.109-.093.026-.029.062-.079.093-.141.004-.013.024-.06.025-.063l.011-.05c-.003.001-.001-.044.001-.061-.005-.02-.01-.055-.01-.054.013.041-.034-.048-.035-.05-.043-.045-.15-.085-.214-.093-.251-.026-.472.058-.684.195-.145.094-.26.228-.358.377.29.094.603.176.896.102M14.864 6.979c-.162.378-.511.66-.916.736-.412.076-.815-.008-1.208-.128.002.044-.007.093.001.133.094.492.45.908.95.994.178.031.438-.002.615-.075.241-.098.422-.255.545-.46.088-.147.23-.189.36-.164-.121-.424-.213-.856-.275-1.292-.015.087-.036.174-.072.256M5.133 24.115l.001-.005-.004.005h.003z" transform="translate(-198 -830) translate(198 830)"/>
                <path fill="#CF7677" d="M7.724 8.493c-.01.253-.01.506.014.758.044.456.69.467.719 0 .016-.272.007-.544-.016-.815.015-.248.046-.496.101-.74.1-.447.244-1 .545-1.357.047-.055.207-.237.293-.21.061.02.086.143.101.193.042.137.075.277.108.417.076.336.123.675.156 1.017-.003.217.013.436.046.655l.001.014h.001c.005.032.006.064.013.096.074.4.713.304.704-.096-.006-.269-.026-.537-.055-.805.031-.5.189-.988.45-1.416.278.827.44 1.686.467 2.562.013.46.731.463.718 0-.035-1.167-.277-2.32-.732-3.396-.097-.232-.395-.378-.6-.158-.245.264-.443.56-.603.875-.082-.249-.206-.478-.459-.6-.274-.132-.586-.07-.832.095-.447.3-.687.836-.852 1.351-.25-.126-.627.06-.517.398.123.381.196.77.23 1.162" transform="translate(-198 -830) translate(198 830)"/>
                <path fill="#CF7677" d="M13.298 6.526c.212-.138.433-.222.684-.194.065.007.172.048.214.093.002.002.048.09.035.05-.001-.002.005.032.01.052-.002.018-.004.063 0 .063l-.012.049c-.001.002-.021.05-.025.063-.031.063-.067.112-.094.14-.046.05-.075.074-.108.094-.068.043-.07.045-.166.069-.293.074-.606-.008-.896-.103.098-.148.213-.282.358-.376m-.163 2.762c.838.366 1.864.037 2.336-.747.025-.041.035-.082.043-.121-.114-.03-.217-.106-.256-.233-.018-.057-.031-.115-.047-.172-.13-.025-.272.018-.36.164-.123.206-.304.361-.545.46-.176.073-.437.106-.614.076-.501-.087-.857-.502-.951-.995-.008-.04 0-.089-.001-.133.393.12.796.204 1.208.127.405-.075.754-.357.916-.735.036-.082.057-.169.072-.256-.026-.182-.047-.365-.062-.548-.047-.105-.108-.204-.2-.286-.329-.293-.8-.332-1.211-.22-.783.216-1.364.924-1.446 1.726-.08.772.41 1.584 1.118 1.893" transform="translate(-198 -830) translate(198 830)"/>
                <path fill="#CF7677" d="M15.21 8.015c.017.057.03.115.047.171.04.128.143.203.257.234.215.056.475-.055.449-.33-.039-.41-.039-.828.022-1.238.027-.188.062-.383.122-.564.024-.074.08-.242.16-.274.16-.062.364.496.411.592l.614 1.252c.176.36.805.105.656-.276-.156-.4-.342-.867-.22-1.3.074-.261.328-.562.628-.486.309.078.478.447.563.723.128.412.203.834.406 1.218-.059-.271-.054-.556.035-.83.06-.184.153-.353.261-.512-.05-.177-.105-.352-.192-.516-.232-.443-.67-.835-1.199-.813-.507.021-.908.376-1.113.82-.218-.386-.59-.712-1.062-.557-.245.08-.408.268-.522.49-.153-.31-.706-.264-.68.143l.02.213c.016.183.037.366.063.548.063.436.154.868.275 1.292" transform="translate(-198 -830) translate(198 830)"/>
                <path fill="#CF7677" d="M20.035 7.157c.065-.231.202-.433.385-.61.054-.003.108-.015.153-.049.043-.03.085-.059.133-.081l.006-.005c.006-.001.007 0 .02-.003.02-.005.045-.011.065-.018l.014-.004.078-.003.07.001.028.003.014.003c.052.011.102.026.152.042.068.022.028.011.013.004.021.01.042.02.063.032l.076.046.036.026c.042.035.082.074.118.116-.035-.04.035.053.045.071.032.055.037.066.054.12.044.135.05.198.045.337-.009.214-.094.44-.229.637-.117.17-.318.342-.525.401-.048.013-.078.02-.115.021-.025.002-.049 0-.074 0l-.02.002c-.002-.001 0-.002-.01-.003-.05-.01-.101-.024-.15-.043-.004-.004-.002-.002-.016-.01-.031-.02-.063-.035-.093-.056l-.019-.012c-.017-.014-.035-.03-.05-.045-.023-.02-.044-.043-.066-.065-.005-.006-.025-.03-.033-.037-.028-.037-.053-.077-.077-.117l-.035-.066-.027-.06c-.082-.221-.086-.371-.03-.575m-.709.58c.085.382.301.735.625.975.618.459 1.43.221 1.898-.336.462-.55.659-1.4.258-2.04-.182-.292-.488-.51-.824-.61-.006-.041-.017-.081-.037-.115-.108-.184-.312-.205-.492-.129-.448.192-.855.509-1.132.913-.108.159-.2.328-.26.513-.09.273-.095.558-.036.828M24.69 9.518c.245.008.487-.012.73-.046.473-.067.929-.222 1.353-.445.172-.09.223-.33.128-.491-.1-.174-.318-.22-.49-.129-.335.176-.694.292-1.067.355-.164.028-.34.039-.512.04-.095 0-.188-.005-.282-.01-.074-.003.006.005-.061-.008l-.014-.003v-.005l-.004-.015-.003-.04c-.004-.1.001-.202.005-.302.008-.207.023-.414.044-.62.043-.415.12-.827.218-1.232.046-.188-.06-.389-.25-.44-.184-.051-.396.06-.442.25-.122.5-.207 1.011-.254 1.525-.023.253-.041.508-.04.762.002.237.053.482.235.647.194.176.456.198.706.207M27.545 9.109c.088-.029.171-.098.222-.183-.142-.15-.278-.305-.394-.477-.109-.161-.03-.398.129-.491.028-.017.058-.022.087-.03-.015-.095-.027-.186-.034-.301-.024-.387.006-.706.097-1.064.047-.18-.059-.397-.25-.44-.187-.043-.392.055-.442.25-.208.817-.166 1.698.144 2.485.068.174.243.315.441.25" transform="translate(-198 -830) translate(198 830)"/>
                <path fill="#CF7677" d="M27.373 8.449c.116.172.252.327.394.476.194.205.403.395.643.55.443.288.978.503 1.512.418.47-.074.9-.445.968-.929.071-.523-.295-.906-.69-1.186-.403-.285-.82-.553-1.233-.823.375-.363.935-.502 1.428-.355.444.133.633-.56.191-.692-.922-.276-1.957.133-2.458.949-.106.172-.03.386.128.491.488.323.977.644 1.463.969.15.1.32.21.416.368.073.122.06.227-.025.33-.279.343-.814.138-1.134-.037-.394-.216-.732-.52-.984-.891-.09-.135-.25-.2-.402-.158-.03.007-.06.012-.088.028-.16.094-.238.33-.129.492" transform="translate(-198 -830) translate(198 830)"/>
                <path fill="#CF7677" d="M31.203 6.738c.204.007.408.001.612-.01-.003-.128-.016-.256-.016-.384-.002-.463.716-.462.718 0 0 .101.01.203.012.304.224-.037.447-.08.666-.14.182-.048.31-.258.25-.441-.059-.186-.247-.303-.441-.251-.15.041-.303.076-.457.106-.077.015-.154.029-.232.04l-.084.013-.09.01c-.311.035-.624.046-.938.035-.188-.007-.367.17-.359.359.01.2.158.352.36.359" transform="translate(-198 -830) translate(198 830)"/>
                <path fill="#CF7677" d="M31.799 6.344c0 .128.012.256.016.384.02.886.09 1.77.22 2.647.03.191.271.297.442.25.205-.056.28-.249.25-.441-.125-.84-.184-1.687-.198-2.536-.003-.102-.012-.203-.012-.304-.002-.462-.72-.463-.718 0M4.74 13.396c.012.034.026.069.042.1l.014.024c.019.029.043.058.065.085l.016.017c.026.023.056.046.085.065.007.005.014.01.022.012.032.016.065.033.1.042.034.01.074.013.11.016h.02c.027 0 .073-.008.1-.013l.011-.002c.004 0 .005-.003.008-.004.012.001.022.004.033.004.04-.001.082-.006.12-.018.069-.02.099-.038.15-.077.053-.041.069-.057.11-.12l.01-.015c.009-.021.029-.067.036-.088l.004-.01c.011-.04.017-.082.017-.123 0-.02-.006-.044-.008-.062-.003-.02-.005-.045-.01-.065-.024-.086-.064-.145-.12-.213-.027-.031-.063-.055-.096-.08-.012-.008-.028-.012-.041-.019l-.001-.002c-.015-.045-.04-.083-.075-.116-.068-.063-.157-.11-.253-.105-.093.004-.19.034-.254.105-.045.05-.087.103-.127.158-.011.015-.022.031-.03.047-.024.043-.043.088-.058.134-.015.045-.019.094-.024.14-.002.016-.001.032 0 .048.006.043.009.093.024.135M5.61 18.29c-.044-.022-.09-.032-.14-.03l-.094.012c-.015.004-.026.017-.04.023-.044-.002-.089 0-.128.016-.034.013-.068.027-.102.043-.016.008-.032.018-.046.029-.037.026-.079.056-.111.09-.033.034-.061.072-.088.11-.01.016-.02.033-.028.05-.019.043-.041.09-.052.138-.015.047-.018.095-.007.143.003.048.016.092.043.133l.056.073c.023.023.055.032.082.048.013.009.019.023.032.031l.117.07c.022.013.042.022.067.032.014.006.028.013.043.018.063.017.127.017.19 0-.018.006.063-.023.09-.037.037-.02.07-.05.102-.076.031-.027.058-.068.08-.098l.019-.032c.017-.037.035-.076.046-.116.006-.022.007-.046.01-.07.021-.037.038-.077.052-.116.018-.05.021-.105.027-.156.002-.049-.009-.095-.031-.138-.014-.045-.04-.083-.075-.115-.032-.036-.07-.06-.115-.075M5.61 23.865c-.044-.022-.09-.033-.14-.031l-.094.013c-.015.004-.026.017-.04.023-.044-.002-.089 0-.128.016-.034.013-.068.027-.102.043-.016.008-.032.017-.046.028-.037.027-.079.056-.111.09-.033.034-.061.072-.088.111-.01.016-.02.033-.028.05-.019.043-.041.09-.052.137-.015.048-.018.096-.007.143.003.048.016.093.043.134l.056.072c.023.024.055.033.082.048.013.01.019.024.032.032l.117.07c.022.013.042.022.067.032l.043.018c.063.017.127.017.19 0-.018.005.063-.024.09-.038.037-.02.07-.049.102-.075.031-.026.058-.069.08-.098.007-.01.013-.021.019-.033.017-.037.035-.075.046-.114.006-.023.007-.047.01-.071.021-.037.038-.077.052-.116.018-.05.021-.106.027-.156.002-.05-.009-.096-.031-.138-.014-.044-.04-.083-.075-.116-.032-.035-.07-.06-.115-.074M5.194 36.18l-.04-.03c.028.018.054.04.087.05l-.047-.02m.561-.423c-.004-.008-.01-.016-.015-.023-.02-.028-.04-.055-.063-.08l-.008-.01c-.004-.004-.008-.008-.012-.01-.026-.022-.054-.043-.081-.063l-.023-.014c-.029-.014-.058-.025-.088-.037l-.004-.005c-.033-.036-.072-.06-.117-.075-.044-.022-.09-.032-.14-.03l-.097.012c-.063.017-.116.048-.161.093-.02.023-.038.048-.058.072-.032.056-.05.116-.05.181l-.017.173-.005.044c-.004.068.027.14.057.198.015.032.056.076.069.092.004.006.01.011.016.016.028.024.058.049.09.068.032.02.083.038.108.047.044.017.097.02.143.023h.025c.006-.002.018-.003.028-.004l.003.001H5.38c.033-.002.072-.008.104-.013l.017-.004.003-.002c.018-.006.071-.03.089-.037l.007-.004.007-.004.075-.057.003-.002.007-.006.002-.004c.012-.013.048-.059.058-.074.012-.017.018-.038.026-.056.01-.022.02-.043.025-.066.015-.083.02-.151-.003-.234l-.005-.012c-.011-.032-.025-.064-.04-.094M5.194 30.18l-.04-.03c.028.018.054.04.087.05l-.047-.02m.561-.423c-.004-.009-.01-.017-.015-.024-.02-.027-.04-.054-.063-.08l-.008-.01-.012-.01c-.026-.022-.054-.043-.081-.062l-.023-.014c-.029-.015-.058-.026-.088-.037l-.004-.006c-.033-.035-.072-.06-.117-.074-.044-.023-.09-.033-.14-.031l-.097.012c-.063.018-.116.049-.161.093l-.058.073c-.032.056-.05.116-.05.18l-.017.174-.005.043c-.004.069.027.14.057.2.015.03.056.075.069.09.004.006.01.012.016.017.028.024.058.049.09.068.032.019.083.037.108.046.044.017.097.02.143.024l.025-.001.027-.003h.004l.018.002.007-.001c.033-.003.072-.008.104-.014l.017-.004.003-.001.089-.037.007-.004.007-.004.075-.057.003-.003.007-.006s0-.002.002-.003l.058-.074c.012-.018.018-.038.026-.057.01-.021.02-.042.025-.065.015-.083.02-.152-.003-.234l-.005-.013c-.011-.03-.025-.063-.04-.093M3.745 15.914c4.403.153 8.809.268 13.214.346 4.42.079 8.839.12 13.259.123 2.482.002 4.964-.008 7.445-.03.308-.003.308-.482 0-.479-4.406.04-8.813.04-13.219.004-4.42-.036-8.838-.109-13.257-.22-2.481-.063-4.962-.137-7.442-.223-.308-.01-.308.468 0 .479M3.694 21.094c4.433.15 8.868.27 13.303.356 4.409.087 8.817.141 13.226.164 2.497.013 4.993.015 7.49.008.308 0 .309-.48 0-.48-4.435.014-8.87-.004-13.307-.055-4.408-.05-8.817-.133-13.224-.247-2.497-.065-4.992-.14-7.488-.225-.307-.01-.307.468 0 .479M3.2 26.985c4.693.153 9.386.223 14.079.23 4.492.009 8.982-.037 13.474-.095 2.552-.033 5.104-.069 7.656-.1.308-.004.31-.483 0-.48-4.497.057-8.995.127-13.492.167-4.546.04-9.091.047-13.636-.014-2.694-.038-5.388-.098-8.08-.187-.308-.01-.308.47 0 .479M3.2 32.531c4.648.121 9.297.17 13.946.17 4.542 0 9.083-.044 13.624-.094 2.583-.029 5.165-.06 7.747-.086.308-.004.309-.483 0-.48-4.579.048-9.158.109-13.738.147-4.56.037-9.122.05-13.683.005-2.631-.026-5.263-.072-7.895-.14-.308-.008-.308.47 0 .478M38.726 37.923c-4.668.197-9.341.25-14.013.207-4.507-.043-9.013-.17-13.52-.285-2.68-.068-5.36-.132-8.04-.177-.309-.005-.309.473 0 .478 4.659.079 9.316.217 13.974.328 4.509.107 9.02.18 13.53.136 2.69-.026 5.38-.095 8.07-.208.306-.014.307-.492 0-.479" transform="translate(-198 -830) translate(198 830)"/>
            </g>
        </g>
    </g>
</svg>
