<svg xmlns="http://www.w3.org/2000/svg" xmlns:xlink="http://www.w3.org/1999/xlink" width="33" height="16" viewBox="0 0 33 16">
    <defs>
        <path id="1l1oxh99qa" d="M0 0L32.868 0 32.868 14.885 0 14.885z"/>
    </defs>
    <g fill="none" fill-rule="evenodd">
        <g>
            <g transform="translate(-44 -995) translate(44 995)">
                <mask id="2bg7xppf0b" fill="#fff">
                    <use xlink:href="#1l1oxh99qa"/>
                </mask>
                <path fill="#CF7677" d="M31.721 5.491c-.175-1.08-.373-2.304-1.006-3.39C29.936.758 28.572-.064 27.232.005c-1.304.068-2.455.878-3.517 2.47-.306.457-.575.933-.832 1.416-.132-.441-.278-.88-.45-1.307-.306-.769-.781-1.716-1.714-2.234-1.608-.883-3.46.048-4.657 1.214-.83.81-1.52 1.766-2.082 2.807-.06-.096-.109-.195-.176-.29C12.329 1.959 9.31.99 6.627 1.779c-2.329.688-4.322 2.524-5.461 5.04-.895 1.982-1.27 4.31-1.142 7.122.024.53.46.944.987.944.014 0 .03 0 .045-.002.546-.024.968-.486.944-1.031-.114-2.493.203-4.527.967-6.217.89-1.963 2.468-3.442 4.218-3.96 1.891-.555 3.993.089 4.996 1.534.304.437.54.985.759 1.733-.677 2.403-.646 4.947.135 7.21.136.398.512.665.932.665.454 0 .876-.182 1.188-.515.627-.666.639-1.683.614-2.089-.1-1.699-.36-3.405-.767-5.078l-.01-.038c-.013-.05-.023-.096-.038-.142.513-1.528 1.348-2.901 2.448-3.975.71-.693 1.705-1.24 2.322-.9.386.215.648.776.835 1.238.508 1.278.816 2.638.932 4.04-.476 1.796-.655 3.631-.513 5.46.036.477.41.86.886.907.035.003.066.006.1.006.436 0 .829-.29.95-.717.506-1.772.694-3.612.576-5.471.406-1.42 1.02-2.756 1.83-3.972.682-1.023 1.348-1.56 1.975-1.592.68-.036 1.332.532 1.67 1.116.45.77.608 1.758.763 2.712l1.135 7.037c.078.485.498.831.975.831.053 0 .107-.004.16-.013.538-.087.906-.594.818-1.133L31.721 5.49z" mask="url(#2bg7xppf0b)"/>
            </g>
        </g>
    </g>
</svg>
