<svg xmlns="http://www.w3.org/2000/svg" xmlns:xlink="http://www.w3.org/1999/xlink" width="35" height="39" viewBox="0 0 35 39">
    <defs>
        <path id="3s4t1npwea" d="M0 0.394L16.969 0.394 16.969 37.5 0 37.5z"/>
    </defs>
    <g fill="none" fill-rule="evenodd">
        <g>
            <g>
                <path fill="#AA8A9C" d="M11.264 15.624c-.428-.207-.944-.026-1.15.402-.207.428-.027.943.4 1.15.047.02.07.042.07.035.006.033-.023.157-.125.274-.314.358-.278.902.08 1.216.163.143.366.213.567.213.239 0 .478-.099.648-.294.444-.506.637-1.162.518-1.753-.111-.541-.469-.983-1.008-1.243M20.652 19.51c.122.058.25.087.377.087.32 0 .625-.178.776-.483.208-.427.03-.944-.397-1.152-.05-.024-.07-.045-.07-.04-.007-.03.019-.154.121-.272.314-.357.28-.9-.077-1.215-.358-.313-.902-.278-1.216.08-.442.503-.635 1.157-.518 1.747.109.54.465.983 1.004 1.247M15.24 13.28c-.016-.532-.04-1.016-.082-1.462-.006-.075-.021-.141-.029-.215-.093.196-.188.391-.276.596-.174.412.004.871.388 1.082M12.341 35.639c-.068-.08-.13-.168-.196-.248.024.515.214 1.023.55 1.41.162.187.394.295.64.298h.01c.078 0 .149-.028.221-.048-.182-.203-.365-.408-.537-.607-.231-.259-.465-.533-.688-.805" transform="translate(-283 -378) translate(283 378)"/>
                <path fill="#AA8A9C" d="M16.893 11.939c1.42-2.651 3.925-4.761 6.754-5.663 1.135-.36 2.815-.683 4.39-.167 2.324.762 4.009 3.379 4.005 6.219-.002 3.115-1.745 5.83-3.205 7.56-1.428 1.69-3.167 3.18-4.847 4.622-.546.468-1.091.935-1.628 1.41-3.062 2.706-5.95 5.758-8.537 8.538-.103-.2-.283-.358-.514-.43-.018-.004-.035 0-.053-.004.14.169.267.346.407.514.219.266.435.518.656.767.169.195.346.391.521.59 2.73-2.935 5.554-5.94 8.66-8.685.532-.47 1.07-.931 1.608-1.392 1.733-1.487 3.525-3.023 5.041-4.818 1.648-1.95 3.61-5.035 3.614-8.671.005-3.564-2.179-6.868-5.19-7.856-1.593-.523-3.478-.467-5.45.162-2.63.839-4.944 2.514-6.614 4.72.159.728.289 1.484.361 2.309.009.087.014.185.021.275" transform="translate(-283 -378) translate(283 378)"/>
                <g transform="translate(-283 -378) translate(283 378) translate(0 .856)">
                    <mask id="xzulm1wudb" fill="#fff">
                        <use xlink:href="#3s4t1npwea"/>
                    </mask>
                    <path fill="#AA8A9C" d="M12.145 34.535c.067.08.129.167.196.247.223.273.456.547.688.805.173.2.355.404.538.61.297.33.602.67.935 1.028.17.182.4.275.632.275.21 0 .42-.076.585-.23.348-.324.368-.869.046-1.218-.328-.352-.629-.685-.923-1.013-.175-.198-.352-.395-.52-.59-.223-.25-.438-.5-.657-.768-.14-.166-.266-.345-.406-.514-3.642-4.39-6.727-9.213-9.144-14.368C2.67 15.712 1.272 12.07 1.854 8.452c.51-3.188 3.278-6.495 6.59-6.33 2.04.104 4.052 1.488 5.253 3.61.768 1.362 1.233 3.01 1.433 5.014.007.075.021.141.027.216.042.445.068.93.084 1.463.003.055.004.104.005.16.013.476.408.851.884.84.474-.011.85-.406.839-.883-.013-.532-.04-1.007-.075-1.46-.008-.09-.013-.187-.022-.275-.072-.825-.202-1.58-.36-2.308-.292-1.348-.717-2.554-1.315-3.613C13.71 2.254 11.155.535 8.531.402 4.145.185.777 4.272.152 8.18c-.658 4.102.938 8.22 2.403 11.35 2.53 5.395 5.762 10.44 9.59 15.005" mask="url(#xzulm1wudb)"/>
                </g>
                <path fill="#AA8A9C" d="M15.851 23.92c.049.01.099.013.147.013.412 0 .775-.295.848-.713.293-1.683.659-3.387 1.089-5.063.117-.461-.16-.93-.621-1.049-.463-.117-.93.16-1.048.622-.441 1.72-.816 3.467-1.117 5.194-.08.47.233.916.702.997" transform="translate(-283 -378) translate(283 378)"/>
                <path fill="#AA8A9C" d="M14.425 26.195c.45.2.949.298 1.468.298.678 0 1.39-.169 2.078-.504.985-.476 1.765-1.19 2.528-1.885l-1.169-1.266c-.695.635-1.35 1.234-2.111 1.602-.756.368-1.523.434-2.099.18-.547-.242-.905-.866-.767-1.336.136-.455-.125-.935-.58-1.069-.458-.134-.937.127-1.072.582-.385 1.308.37 2.801 1.724 3.398" transform="translate(-283 -378) translate(283 378)"/>
            </g>
        </g>
    </g>
</svg>
