<svg xmlns="http://www.w3.org/2000/svg" xmlns:xlink="http://www.w3.org/1999/xlink" width="35" height="46" viewBox="0 0 35 46">
    <defs>
        <path id="tn2suge8oa" d="M0 0.91L34.747 0.91 34.747 44.074 0 44.074z"/>
    </defs>
    <g fill="none" fill-rule="evenodd">
        <g>
            <g>
                <g transform="translate(-123 -373) translate(123 373) translate(0 .387)">
                    <mask id="lsc05ffqhb" fill="#fff">
                        <use xlink:href="#tn2suge8oa"/>
                    </mask>
                    <path fill="#EAB153" d="M1.934 8.34c.153-1.802.734-4.916 2.91-5.543.243-.07.485-.103.729-.103 1.717 0 3.401 1.64 4.402 3.458 1.87 3.401 2.53 7.382 1.854 11.209-.087.486.237.949.723 1.034.147.026.29.016.42-.026.047.017.095.03.145.04.485.09.95-.232 1.041-.716 1.081-5.854 5.605-11.044 11.258-12.91.798-.265 1.989-.595 3.092-.407 1.84.312 3.142 1.946 3.746 3.37 1.726 4.054-.07 8.87-1.572 12.141-3.816 8.319-9.393 15.99-16.136 22.188-.103.096-.17.151-.215.184-.043-.037-.102-.091-.174-.165C5.455 33.294.884 20.675 1.934 8.34m12.273 35.73c.04.002.077.004.116.004.696 0 1.194-.462 1.436-.687 6.91-6.354 12.632-14.222 16.547-22.754 1.641-3.58 3.594-8.881 1.592-13.586-1.006-2.372-2.957-4.07-5.092-4.433-1.497-.253-2.972.15-3.95.473-4.8 1.584-8.862 5.333-11.034 9.92-.198-2.693-.97-5.333-2.282-7.717C10.055 2.595 7.26.247 4.352 1.08 1.976 1.763.486 4.288.154 8.187c-1.093 12.85 3.667 25.994 12.731 35.16.236.24.673.683 1.322.722" mask="url(#lsc05ffqhb)"/>
                </g>
                <path fill="#DDBB65" d="M20.391 22.84c.494 0 .893-.4.893-.893v-1.004c0-.494-.399-.893-.893-.893-.492 0-.892.4-.892.893v1.004c0 .493.4.893.892.893M9.757 20.711c-.494 0-.893.4-.893.893v1.007c0 .493.4.894.893.894s.892-.401.892-.894v-1.007c0-.494-.4-.893-.892-.893M14.858 27.873c.494 0 .893-.4.893-.892v-5.538c0-.494-.4-.893-.893-.893s-.892.4-.892.893v5.538c0 .493.4.892.892.892M14.488 34.547c1.735 0 3.448-1.047 4.97-3.042.966-1.266 1.763-2.66 2.367-4.145.187-.456-.032-.978-.49-1.164-.457-.185-.977.033-1.163.49-.545 1.338-1.263 2.595-2.133 3.735-.847 1.11-2.177 2.416-3.683 2.337-.624-.031-1.298-.561-1.567-1.233-.12-.298-.199-.72.103-1.038.339-.358.325-.923-.035-1.261-.359-.34-.924-.324-1.262.033-.72.764-.895 1.858-.464 2.931.53 1.32 1.818 2.286 3.134 2.352.075.004.148.005.223.005" transform="translate(-123 -373) translate(123 373)"/>
            </g>
        </g>
    </g>
</svg>
