<svg xmlns="http://www.w3.org/2000/svg" xmlns:xlink="http://www.w3.org/1999/xlink" width="34" height="32" viewBox="0 0 34 32">
    <defs>
        <path id="ordrtyskea" d="M0 0.312L6.1 0.312 6.1 16.644 0 16.644z"/>
        <path id="bcrf89l61c" d="M0.006 0.903L27.208 0.903 27.208 31 0.006 31z"/>
    </defs>
    <g fill="none" fill-rule="evenodd">
        <g>
            <g>
                <g transform="translate(-43 -304) translate(43 304) translate(0 14.097)">
                    <mask id="9zop3xlsyb" fill="#fff">
                        <use xlink:href="#ordrtyskea"/>
                    </mask>
                    <path fill="#7387A0" d="M.094 9.242l.217 5.872c.009.247.019.503.124.728.228.496.827.694 1.369.762 1.172.148 2.459-.113 3.275-.966 1.041-1.086 1.055-2.766 1.006-4.269l-.26-7.918c-.03-.92-.109-1.95-.8-2.559C4.53.457 3.83.35 3.172.322 2.188.278 1.197.376.24.608l.046.175C-.113 3.58-.01 6.42.094 9.242" mask="url(#9zop3xlsyb)"/>
                </g>
                <g transform="translate(-43 -304) translate(43 304) translate(6 .097)">
                    <mask id="og57of2spd" fill="#fff">
                        <use xlink:href="#bcrf89l61c"/>
                    </mask>
                    <path fill="#7387A0" d="M6.62 28.018c-.072-.035-.143-.073-.213-.111-.146-.082-.289-.17-.428-.267-.04-.027-.082-.059-.123-.088-.022-.018-.05-.043-.064-.053-.136-.125-.275-.244-.406-.375-.13-.133-.255-.27-.375-.41-.049-.056-.095-.114-.143-.171.032.038.131.178-.01-.014-.21-.287-.406-.581-.588-.887-.165-.279-.32-.564-.465-.854-.078-.154-.152-.311-.224-.468l-.085-.195-.06-.148c-.29-.736-.518-1.494-.682-2.267-.04-.189-.077-.378-.11-.569l-.037-.227-.025-.203c-.038-.358-.074-.717-.09-1.077-.033-.774.005-1.541.086-2.31l.005-.049.004-.021.045-.287c.035-.208.075-.416.12-.623.015-.073.04-.143.056-.213.165-.05.331-.107.501-.181.413-.182.811-.404 1.194-.643.83-.516 1.611-1.13 2.305-1.818 1.417-1.397 2.49-3.1 3.18-4.962.315-.85.51-1.725.637-2.621.062-.44.123-.883.227-1.316.044-.184.107-.359.163-.537.01-.029.025-.066.045-.106.046-.087.11-.17.155-.258.027-.026.052-.058.078-.083.045-.045.096-.08.115-.093l-.079.046c.03-.018.126-.092.187-.118.053-.013.11-.028.161-.045.01-.003.011-.006.018-.008.095 0 .214.02.306.002l.024.006c.115.03.234.08.35.1l.04.022c.083.04.164.087.242.136.11.067.251.212.088.05.077.076.162.143.237.222.065.067.213.31.072.067.05.086.11.164.16.25.054.1.106.2.153.303-.097-.212.05.162.068.231.038.127.068.255.094.383l.03.167c-.048-.24 0 .011.004.066.026.287.03.575.018.862-.006.136-.016.27-.027.405l-.027.244c-.042.28-.092.561-.15.84-.13.617-.299 1.225-.503 1.82-.1.293-.209.582-.327.867l-.004.01c-.043.096-.085.192-.129.287-.07.154-.145.305-.219.454-.226.457-.223.963.097 1.378.292.378.83.595 1.304.444.662-.211 1.333-.39 2.013-.532.298-.061.598-.117.898-.163l.225-.034.09-.014.583-.063c.67-.062 1.344-.088 2.017-.08.3.003.596.014.893.037l.236.022.141.017.053.008c.115.021.23.043.345.068.255.058.503.135.748.226.021.01.044.018.054.024.07.036.14.07.208.107.06.034.118.07.175.105l.123.086c.044.04.166.143.194.17.08.079.154.162.226.25.011.026.12.186.145.23.024.043.044.091.07.134.005.006.003.002.006.005.003.011.001.009.006.026.03.099.053.198.075.298-.003.018.01.144.007.214 0 .02-.008.068-.013.104-.006.02-.01.038-.014.048-.01.047-.026.092-.04.14l-.007.033-.015.024c-.055.098-.12.193-.173.29-.002.003 0 .002 0 .005l-.079.088c-.082.09-.172.17-.26.252-.147-.022-.295-.051-.439-.066-1.325-.14-2.715.06-3.956.54-.497.191-.937.615-.91 1.196.021.495.363 1.12.91 1.195 1.612.221 3.238.367 4.77-.253.01.002.017.005.026.006.015.006.021.008.032.01.01.005.016.01.031.02.091.052.185.11.278.162.03.026.06.052.088.08.022.018.022.013.032.018.006.015.006.023.03.062l.023.04c.003.01.008.029.022.066.005.015.01.022.012.032 0 .01-.002.016-.004.03.001.04-.002.079-.004.117l-.01.049c-.023.058-.05.14-.052.16-.052.096-.109.188-.159.285.105-.206-.002 0-.063.064-.026.027-.196.17-.223.2-.194.136-.398.25-.609.358l-.06.032-.053.02c-.138.052-.278.104-.42.15l-.003.001c-.935.142-1.862.387-2.728.625-.597.166-.97.759-.889 1.361.073.544.607 1.157 1.218 1.076.11-.015.22-.035.33-.05v.006l.05-.014c.862-.128 1.72-.303 2.55-.576.077-.008.164-.018.147-.015.172-.017.344-.026.517-.03.172-.005.344-.003.516.006.108.005.214.018.322.024l.016.002c.056.009.111.018.167.03.155.03.303.076.455.117.012.002.027.008.04.014l-.052-.027c.017.01.036.018.053.029.04.017.07.034.046.023l.078.04.015.008.053.064.007.026v.009c-.01.075-.007.162-.006.238l.001.012-.01.035c-.037.13-.064.261-.106.39-.009.028-.02.055-.03.083-.013.027-.042.098-.058.13-.078.15-.164.295-.257.434-.02.029-.067.09-.083.114l-.065.078c-.09.104-.184.203-.283.297-.11.11-.232.206-.347.311l-.012.012-.025.017c-.07.05-.14.1-.213.148-.245.162-.5.305-.763.433l-.184.085c-.06.023-.226.091-.205.084-.193.073-.389.14-.586.203-1.429.457-2.915.706-4.352 1.136-1.45.434-2.877.946-4.34 1.332-.363.096-.726.183-1.092.26-.16.034-.323.064-.485.095l-.244.04c-.026.005-.142.021-.197.03-.718.09-1.446.12-2.168.066-.082-.006-.165-.017-.247-.023l-.072-.005c-.009 0-.012-.002-.025-.003-.178-.03-.356-.06-.532-.1-.332-.073-.665-.168-.98-.297l-.14-.067m11.062 1.1c3.1-.94 6.793-1.174 8.748-4.136.488-.742.814-1.698.775-2.591-.05-1.154-.76-1.97-1.76-2.4.044-.076.105-.139.143-.22.55-1.173.463-2.502-.446-3.473-.063-.066-.14-.108-.208-.168.41-.6.666-1.297.675-2.037.021-1.557-1.055-3.008-2.413-3.69-1.444-.724-3.097-.812-4.686-.756-1.066.037-2.129.165-3.179.367.114-.35.221-.703.31-1.06.278-1.112.49-2.298.412-3.447-.083-1.22-.453-2.438-1.317-3.336C14 1.407 12.934.918 11.868.903c-1.182-.016-2.25.631-2.858 1.632-.517.85-.652 1.843-.79 2.808-.133.931-.355 1.84-.698 2.717-.03.08-.153.356-.05.131l-.128.281c-.11.235-.226.463-.35.69-.23.42-.487.829-.766 1.22-.07.098-.142.194-.213.29.157-.212-.08.098-.126.153-.175.212-.357.418-.545.618-.367.386-.757.748-1.17 1.082l-.062.048-.095.072c-.096.072-.194.142-.292.21-.226.155-.458.303-.694.444-.233.138-.472.268-.717.389-.04-.016-.078-.035-.12-.043-.349-.08-.689-.016-.968.15-.266.085-.506.242-.652.518-.15.285-.188.647-.109.973-.717 2.886-.598 6.002.38 8.807.543 1.566 1.307 3.06 2.376 4.332 1.09 1.299 2.601 2.152 4.273 2.43 3.541.587 6.86-.729 10.188-1.736" mask="url(#og57of2spd)"/>
                </g>
            </g>
        </g>
    </g>
</svg>
