<svg xmlns="http://www.w3.org/2000/svg" width="57" height="41" viewBox="0 0 57 41">
    <g fill="none" fill-rule="evenodd">
        <g>
            <g>
                <path fill="#C26877" d="M33.068 15.275c.69-2.309 2.717-4.342 5.124-4.417.262-.008.517.022.77.057.034-2.225-.364-4.396-1.677-6.152-.97-1.3-2.498-2.9-3.932-3.664C31.467.097 29.537.003 27.4 0c-3.22-.005-6.376 1.87-7.91 4.7-1.18 2.174-1.37 4.84-.599 7.18l-.01.002C17.196 8.335 11.36 6.06 7.57 7.083 3.78 8.105.9 11.603.192 15.463c-.709 3.862.59 7.946 3.054 11.004 2.001 2.483 4.678 4.314 7.316 6.108 5.827 3.966 10.911 6.783 17.83 7.63 2.82-4.262 5.13-8.856 6.917-13.643-.709-1.343-1.316-2.739-1.78-4.185-.738-2.293-1.15-4.793-.462-7.102" transform="translate(-32 -305) translate(32 305)"/>
                <path fill="#F0CC7B" d="M55.6 16.275c-.915-2.266-3.516-3.924-5.854-3.212-2.432.74-4.412 4.105-4.785 6.74-.01-1.515-.308-3.027-.9-4.421-.927-2.176-2.817-4.151-5.1-4.466-.253-.036-.507-.066-.769-.058-2.407.076-4.435 2.109-5.124 4.417-.69 2.309-.277 4.809.461 7.103.465 1.445 1.072 2.842 1.781 4.184 1.513 2.858 3.54 5.444 5.984 7.56.25.216.528.438.858.463.332.023.64-.157.924-.331 4.644-2.86 9.527-5.976 11.9-10.887 1.063-2.2 1.54-4.826.624-7.092" transform="translate(-32 -305) translate(32 305)"/>
            </g>
        </g>
    </g>
</svg>
