<svg xmlns="http://www.w3.org/2000/svg" xmlns:xlink="http://www.w3.org/1999/xlink" width="48" height="60" viewBox="0 0 48 60">
    <defs>
        <path id="1ppsho7cla" d="M0.649 0.582L13.574 0.582 13.574 19.541 0.649 19.541z"/>
        <path id="ksky3k38jc" d="M0.258 0.385L25.864 0.385 25.864 26.012 0.258 26.012z"/>
        <path id="qr85qjbbde" d="M0 0.514L3.137 0.514 3.137 3.662 0 3.662z"/>
    </defs>
    <g fill="none" fill-rule="evenodd">
        <g>
            <g>
                <g transform="translate(-196 -296) translate(196 296) translate(1.548 .192)">
                    <mask id="zxachkpbib" fill="#fff">
                        <use xlink:href="#1ppsho7cla"/>
                    </mask>
                    <path fill="#F3CA79" d="M7.637.582l-.1 1.832c-.288 1.979-1.09 3.834-2.413 5.359C4.007 9.06 2.33 9.748.65 10.04c1.956.054 3.76.849 4.723 2.553 0 0 1.259 2.158 1.353 4.56l-.13 2.388c.192-2.126.722-4.262 1.876-6.057 1.155-1.795 2.993-3.218 5.103-3.546-3.51-1.682-5.91-5.463-5.937-9.356" mask="url(#zxachkpbib)"/>
                </g>
                <path fill="#F3CA79" d="M34.484 43.515l-.081 1.489c-.235 1.608-.887 3.117-1.962 4.356-.909 1.048-2.272 1.607-3.638 1.844 1.59.044 3.056.69 3.84 2.075 0 0 1.023 1.754 1.1 3.707l-.107 1.94c.156-1.727.587-3.464 1.526-4.923.938-1.46 2.433-2.616 4.148-2.882-2.853-1.368-4.804-4.442-4.826-7.606" transform="translate(-196 -296) translate(196 296)"/>
                <path fill="#DA9EB0" d="M16.772 31.353l.836-1.091c-.456.173-.828.597-.836 1.091" transform="translate(-196 -296) translate(196 296)"/>
                <path fill="#DA9EB0" d="M17.608 30.262l.083-.108c.423-2.094.92-4.328 2.466-5.803 2.376-2.268 6.603-1.687 8.804.751 2.201 2.44 2.542 6.16 1.523 9.283-1.02 3.123-3.207 5.731-5.6 7.983-2.391 2.25-5.037 4.23-7.318 6.595-1.484 1.54-4.105.64-5.82-.64-5.09-3.796-7.974-10.05-8.669-16.361-.353-3.209.18-7.092 3.058-8.552 2.298-1.165 5.219-.167 7.032 1.663 0 0 3.374 2.909 4.441 5.189" transform="translate(-196 -296) translate(196 296)"/>
                <g transform="translate(-196 -296) translate(196 296) translate(21.677 10.257)">
                    <mask id="vxep19535d" fill="#fff">
                        <use xlink:href="#ksky3k38jc"/>
                    </mask>
                    <path fill="#9D84B0" d="M16.732 1.298c1.73-1.15 4.102-1.207 5.924-.21 1.82.999 3.04 2.98 3.191 5.052.174 2.4-.968 4.684-2.186 6.758-2.668 4.546-5.86 8.785-9.49 12.606-.205.215-.431.44-.722.495-.332.062-.659-.11-.947-.284-4.424-2.679-7.359-7.22-9.824-11.767C1.602 11.964.567 9.893.31 7.65.054 5.41.72 2.936 2.511 1.564 4.501.04 7.206.099 9.603 1.502c2.397 1.403 2.29 3.11 3.558 5.274.773-2.28 1.567-4.145 3.57-5.478z" mask="url(#vxep19535d)"/>
                </g>
                <g transform="translate(-196 -296) translate(196 296) translate(0 45.87)">
                    <mask id="2e98xz3omf" fill="#fff">
                        <use xlink:href="#qr85qjbbde"/>
                    </mask>
                    <path fill="#ECCD81" d="M1.963.56c1.04.257 1.538 1.722.87 2.56-.67.837-2.209.675-2.69-.283C-.337 1.88.455.55 1.527.514" mask="url(#2e98xz3omf)"/>
                </g>
                <path fill="#DA9EB0" d="M9.135 53.457c-.92.43-1.153 1.856-.418 2.557.736.701 2.15.398 2.533-.542.385-.942-.412-2.147-1.428-2.162" transform="translate(-196 -296) translate(196 296)"/>
            </g>
        </g>
    </g>
</svg>
