<svg xmlns="http://www.w3.org/2000/svg" xmlns:xlink="http://www.w3.org/1999/xlink" width="40" height="42" viewBox="0 0 40 42">
    <defs>
        <path id="bvelrxbjza" d="M0 0L38.607 0 38.607 40.212 0 40.212z"/>
    </defs>
    <g fill="none" fill-rule="evenodd">
        <g>
            <g transform="translate(-280 -457) translate(280 457)">
                <mask id="hh0mdfra9b" fill="#fff">
                    <use xlink:href="#bvelrxbjza"/>
                </mask>
                <path fill="#9DB4BC" d="M38.421 6.466c-.295-2.161-1.074-4.446-2.897-5.643-2.288-1.501-5.416-.757-7.728.703-3.833 2.419-7.716 8.16-8.603 13.156-.627-2.216-1.186-4.456-2.137-6.55-1.359-2.989-3.792-5.77-7.026-6.336C5.447.995 1.14 5.16.247 9.726c-.893 4.566.763 9.233 2.781 13.424 2.233 4.639 4.959 9.056 8.29 12.979 2.012 2.367 4.89 4.744 7.883 3.914 1.549-.427 2.733-1.64 3.839-2.803 4.097-4.307 8.227-8.661 11.263-13.771 3.037-5.11 4.924-11.114 4.118-17.003" mask="url(#hh0mdfra9b)"/>
            </g>
        </g>
    </g>
</svg>
