<svg xmlns="http://www.w3.org/2000/svg" xmlns:xlink="http://www.w3.org/1999/xlink" width="33" height="22" viewBox="0 0 33 22">
    <defs>
        <path id="n4x1o1o4ta" d="M1.215 0.321L8.06 0.321 8.06 3.781 1.215 3.781z"/>
        <path id="6c9q7ot66c" d="M0.344 0.848L7.557 0.848 7.557 5.739 0.344 5.739z"/>
        <path id="3l8mh7bt9e" d="M0 0.567L8.319 0.567 8.319 6.533 0 6.533z"/>
    </defs>
    <g fill="none" fill-rule="evenodd">
        <g>
            <g>
                <path fill="#F5C97A" d="M11.293 5.592c-.234-.494-.822-.706-1.316-.472-1.714.81-3.435 1.62-5.153 2.426-.495.232-.708.82-.477 1.316.17.358.525.568.897.568.14 0 .283-.03.419-.093 1.72-.808 3.442-1.619 5.158-2.43.495-.233.704-.822.472-1.315" transform="translate(-44 -1068) translate(44 1068)"/>
                <g transform="translate(-44 -1068) translate(44 1068) translate(15.783 1.114)">
                    <mask id="6y658eaimb" fill="#fff">
                        <use xlink:href="#n4x1o1o4ta"/>
                    </mask>
                    <path fill="#F5C97A" d="M8.017 1.021C7.857.5 7.305.205 6.783.364L1.916 1.846c-.522.16-.816.712-.658 1.234.13.426.522.7.945.7.097 0 .193-.012.287-.041l4.87-1.484c.52-.159.815-.711.657-1.234" mask="url(#6y658eaimb)"/>
                </g>
                <path fill="#F5C97A" d="M19.537 9.04c-.228-.495-.815-.713-1.312-.484l-7.022 3.242c-.495.23-.713.816-.484 1.311.167.362.525.575.898.575.138 0 .28-.028.414-.091l7.021-3.242c.497-.23.714-.816.485-1.311M30.916 4.78c-1.321.589-2.643 1.181-3.964 1.775-.498.224-.72.81-.495 1.307.164.366.524.584.901.584.135 0 .273-.028.405-.087 1.32-.593 2.64-1.187 3.96-1.775.497-.222.72-.806.499-1.306-.222-.497-.806-.721-1.306-.499" transform="translate(-44 -1068) translate(44 1068)"/>
                <g transform="translate(-44 -1068) translate(44 1068) translate(11.478 15.462)">
                    <mask id="wdvedtnibd" fill="#fff">
                        <use xlink:href="#6c9q7ot66c"/>
                    </mask>
                    <path fill="#F5C97A" d="M5.885 1.122c-1.34 1.282-3 2.206-4.801 2.672-.528.138-.845.676-.708 1.205.115.445.517.74.956.74.083 0 .165-.011.248-.031 2.127-.551 4.088-1.643 5.67-3.157.397-.377.41-1.004.032-1.399-.377-.393-1.004-.407-1.397-.03" mask="url(#wdvedtnibd)"/>
                </g>
                <path fill="#F5C97A" d="M30.862 10.044c-1.464.842-3.032 1.505-4.665 1.97-.525.15-.83.696-.68 1.22.123.436.52.72.95.72.09 0 .18-.013.271-.039 1.788-.51 3.507-1.235 5.11-2.158.473-.273.635-.877.362-1.35-.272-.474-.876-.634-1.348-.363" transform="translate(-44 -1068) translate(44 1068)"/>
                <g transform="translate(-44 -1068) translate(44 1068) translate(0 12.592)">
                    <mask id="4v0flcivyf" fill="#fff">
                        <use xlink:href="#3l8mh7bt9e"/>
                    </mask>
                    <path fill="#F5C97A" d="M6.805.718L3.68 2.684c-1.072.674-2.143 1.35-3.217 2.023-.462.291-.602.9-.312 1.363.188.298.51.463.838.463.18 0 .361-.049.525-.152 1.076-.674 2.148-1.35 3.22-2.024l3.123-1.965c.462-.29.601-.9.311-1.363-.291-.462-.902-.6-1.363-.31" mask="url(#4v0flcivyf)"/>
                </g>
            </g>
        </g>
    </g>
</svg>
