<svg xmlns="http://www.w3.org/2000/svg" xmlns:xlink="http://www.w3.org/1999/xlink" width="50" height="51" viewBox="0 0 50 51">
    <defs>
        <path id="uk3c9n04xa" d="M0 0.62L49.38 0.62 49.38 50 0 50z"/>
    </defs>
    <g fill="none" fill-rule="evenodd">
        <g>
            <g>
                <g transform="translate(-35 -903) translate(35 903) translate(0 .038)">
                    <mask id="xlsp7nqp9b" fill="#fff">
                        <use xlink:href="#uk3c9n04xa"/>
                    </mask>
                    <path fill="#F5C96E" d="M24.69 3.109c12.262 0 22.201 9.94 22.201 22.2 0 12.262-9.94 22.202-22.201 22.202-12.261 0-22.2-9.94-22.2-22.201 0-12.261 9.939-22.201 22.2-22.201m0 46.891c13.58 0 24.69-11.11 24.69-24.69C49.38 11.73 38.27.62 24.69.62 11.11.62 0 11.73 0 25.31 0 38.89 11.11 50 24.69 50" mask="url(#xlsp7nqp9b)"/>
                </g>
                <path fill="#CF7677" d="M36.535 20.254c.089.103.333.116.556.032.288-.109.54-.359.675-.67.12-.275.132-.559.034-.797-.103-.25-.36-.447-.673-.514l-.035-.007c-.51.394-.8 1.099-.653 1.725.027.11.059.188.096.231M25.398 31.392c.13-.493-.04-1.089-.44-1.518-.334-.36-.754-.524-1.153-.45-.472.089-.869.443-1.23.874l.613 2.632c.937-.032 1.959-.595 2.21-1.538M38.335 30.174c.585-1.38.88-2.89.848-4.38-.002-.115-.034-.227-.07-.309-.73 1.436-.998 3.096-.778 4.689M18.492 32.362c.037-.003.073-.01.111-.003.35.063.721.013 1.055-.124-.233-.657-.532-1.293-.902-1.882-.053.67-.156 1.343-.264 2.009M26.655 30.962c.088 0 .176.018.253.072.587.404 1.52.241 1.92-.337.192-.279.256-.654.175-1.028-.078-.364-.283-.669-.563-.837-.282-.169-.663-.2-1.02-.086-.337.109-.6.328-.733.604-.057.536-.067 1.075-.032 1.612" transform="translate(-35 -903) translate(35 903)"/>
                <path fill="#CF7677" d="M11.52 26.814c.245-.019.467.167.486.417l.405 5.221c.04-.05.088-.096.149-.128.845-.441 1.617-1.059 2.234-1.786.036-.041.08-.072.124-.098-.107-1.05-.2-2.1-.267-3.147-.015-.25.174-.465.424-.481.255-.014.465.174.481.423.234 3.696.732 7.416 1.48 11.053.05.245-.107.485-.352.536-.03.006-.062.009-.092.009-.21 0-.4-.148-.444-.362-.467-2.271-.826-4.574-1.096-6.884-.608.614-1.311 1.142-2.072 1.54-.067.035-.14.052-.21.052-.12 0-.227-.061-.313-.15l.478 6.161c.02.249-.167.467-.416.487l-.036.001c-.235 0-.433-.18-.451-.418l-.93-11.959c-.019-.25.167-.468.417-.487m1.128-13.852c1.511-.087 2.397-.149 3.391-.28.083-.152.25-.25.43-.237.114.008.21.06.284.135.54-.083 1.148-.19 1.918-.33.244-.046.483.118.527.364.045.246-.118.482-.364.527-.803.148-1.432.257-1.992.343-.24 3.147-.538 6.318-.892 9.45.679-.082 1.383-.193 2.25-.422.242-.063.49.08.554.323.064.241-.081.49-.323.553-1.312.347-2.308.448-3.27.545-.615.063-1.251.127-1.976.256-.027.005-.054.008-.08.008-.215 0-.407-.155-.445-.375-.044-.246.12-.481.366-.525.742-.132 1.384-.198 2.003-.262.354-3.12.65-6.284.892-9.423-.923.113-1.8.173-3.22.256h-.026c-.238 0-.438-.186-.453-.427-.014-.25.176-.464.426-.479m7.886-1.146c.024-.046.053-.09.086-.13.154-.303.425-.544.759-.647.188-.06.392.01.506.172.044.063.085.128.123.193.094.052.166.135.204.233.113.06.196.165.227.29.06.242.05.491-.018.724.114.946-.167 1.945-.817 2.646-.09.096-.21.145-.333.145-.11 0-.22-.04-.307-.121-.184-.17-.195-.457-.025-.64.275-.298.459-.668.547-1.061-.083.01-.168-.003-.246-.039-.082-.038-.15-.1-.196-.175-.097-.023-.182-.078-.244-.153-.127-.015-.254-.047-.378-.097-.18-.071-.295-.25-.284-.445.017-.329.16-.645.396-.895m2.343 4.632c.5.104.917.62 1.092 1.053.043.107.085.213.124.32.05-.159.107-.317.17-.472.09-.227.217-.48.47-.645.236-.153.516-.19.788-.105.495.157.86.681 1.022 1.082.415 1.03.673 2.108.77 3.211.03.012.06.028.089.047.242.162.278.485.19.706-.096.24-.338.375-.588.332-.16-.027-.534-.16-.577-.788-.073-1.09-.316-2.156-.725-3.168-.14-.349-.395-.56-.47-.56-.026.018-.064.067-.129.226-.29.722-.425 1.503-.401 2.279.087.44.152.885.194 1.333.023.234-.139.448-.371.489-.232.041-.458-.103-.519-.33-.119-.454-.188-.918-.208-1.384-.154-.763-.378-1.51-.67-2.233-.099-.246-.299-.444-.403-.494-.02.052-.037.154-.044.191-.279 1.674-.342 3.38-.188 5.071.021.24-.149.455-.387.49-.022.003-.044.004-.065.004-.214 0-.402-.15-.445-.365l-.46-2.327c-.049-.245.111-.484.357-.532.01-.003.021-.004.032-.005.038-.833.125-1.662.262-2.485.03-.18.08-.483.313-.712.212-.208.489-.29.777-.23m6.03 11.607c.494.297.852.816.984 1.424.133.618.018 1.25-.317 1.734-.427.619-1.162.956-1.9.956-.305 0-.61-.064-.895-.183.251 1.417.812 2.778 1.674 3.943.149.201.106.485-.095.634-.08.06-.175.09-.269.09-.139 0-.275-.065-.365-.184-.897-1.214-1.506-2.62-1.8-4.09-.53.807-1.488 1.356-2.528 1.44l.306 1.317c.179.054.33.193.402.38.096.25.03.529-.165.694-.108.092-.245.14-.385.14-.111 0-.225-.03-.327-.09-.19-.112-.307-.308-.314-.514l-.482-2.071c-.092-.096-.146-.226-.127-.368.003-.027.017-.048.025-.073l-.515-2.21c-.1.005-.203-.016-.291-.08-.203-.147-.248-.43-.1-.633.056-.078.114-.155.171-.232l-.032-.142c-.057-.244.094-.487.338-.544.087-.02.172-.007.25.022.412-.428.887-.768 1.49-.881.71-.133 1.433.131 1.983.724.055.059.102.121.15.183.007-.074.019-.148.027-.222 0-.021.004-.042.007-.063.045-.419.105-.837.207-1.248.06-.243.305-.391.548-.33.198.048.325.22.337.413.081-.037.159-.079.245-.107.611-.196 1.254-.134 1.763.171m1.29.681c.213-.13.493-.063.622.151.589.961 1.393 1.801 2.33 2.428.076.052.123.125.157.204.023-.1.049-.198.068-.3.226-1.22.108-2.502-.006-3.743-.023-.25.16-.47.41-.493.247-.022.47.16.492.41.12 1.302.244 2.648-.004 3.99-.286 1.546-1.077 2.828-2.17 3.52-.076.047-.16.069-.243.069-.15 0-.297-.074-.383-.211-.133-.211-.07-.492.14-.625.683-.432 1.22-1.17 1.54-2.082-.077.054-.162.092-.255.092-.087 0-.174-.025-.252-.077-1.043-.7-1.941-1.637-2.597-2.71-.13-.213-.063-.492.151-.623m.815-8.785c.25-.03.473.149.504.397.067.568.6 1.09 1.211 1.188.606.096 1.285-.176 1.724-.695.284-.334.443-.847.22-1.127-.219-.272-.715-.3-1.24-.332-.716-.044-1.608-.097-1.92-.947-.227-.613.082-1.249.489-1.606.384-.337.851-.493 1.263-.629.239-.079.495.05.573.288.079.237-.05.494-.288.572-.346.115-.704.234-.95.45-.2.176-.302.438-.238.612.098.264.434.313 1.125.355.667.04 1.423.085 1.892.67.058.073.103.15.143.229.042-.32.138-.632.29-.919-.008-.006-.014-.013-.02-.02-.172-.182-.163-.469.02-.64.28-.263.644-.407 1.042-.42.127-.072.262-.13.402-.177.239-.079.494.05.572.288.015.043.022.087.024.13.357.197.641.5.79.857.191.467.176 1-.042 1.503-.232.539-.665.96-1.186 1.157-.206.078-.414.116-.612.116-.378 0-.721-.139-.95-.403-.094-.11-.163-.25-.22-.406-.08.36-.253.709-.487.985-.551.652-1.373 1.034-2.175 1.034-.129 0-.257-.01-.383-.03-1.025-.164-1.854-.995-1.97-1.976-.03-.248.148-.474.397-.504m8.51 4.647c.378.236.56.776.569 1.177.048 2.234-.583 4.505-1.776 6.394-.086.136-.233.21-.383.21-.083 0-.167-.022-.243-.069-.211-.134-.274-.414-.14-.626.045-.071.09-.144.134-.218-.597-2.11-.37-4.438.624-6.392.064-.127.2-.392.48-.521.242-.112.51-.096.734.045m-1.45 10.216c-.062.015-.125.022-.186.022-.303 0-.595-.173-.766-.469-.205-.354-.171-.775.087-1.047.125-.132.312-.172.474-.118.118-.123.303-.172.474-.112.354.123.578.481.558.891-.02.41-.278.745-.642.833m-16.862-2.661c-.135.181-.291.344-.465.486.333 1.2.462 2.46.342 3.715-.023.248-.243.43-.494.407-.25-.023-.432-.244-.408-.494.1-1.052.006-2.127-.256-3.16-.323.12-.666.187-1.011.187-.158 0-.315-.014-.472-.041-.031-.006-.057-.023-.087-.035-.176 1.082-.334 2.183-.282 3.205.012.25-.18.463-.43.477h-.024c-.239 0-.44-.189-.452-.43-.063-1.252.152-2.555.36-3.816.2-1.214.408-2.468.35-3.622-.01-.194.104-.372.285-.444.18-.072.386-.02.512.127.753.883 1.334 1.892 1.748 2.963.019-.023.039-.042.055-.064.149-.201.433-.243.634-.095.202.148.244.433.095.634m3.483 15.397c12.261 0 22.202-9.94 22.202-22.201 0-12.261-9.94-22.201-22.202-22.201-12.261 0-22.201 9.94-22.201 22.2 0 12.262 9.94 22.202 22.201 22.202" transform="translate(-35 -903) translate(35 903)"/>
                <path fill="#F5C97A" d="M12.674 13.868h.026c1.42-.083 2.297-.143 3.22-.256.02-.25.045-.5.063-.748.005-.066.026-.127.055-.181-.993.13-1.88.192-3.39.28-.25.014-.441.228-.426.478.014.241.214.427.452.427M16.84 13.484c.561-.086 1.19-.195 1.993-.343.246-.045.41-.28.364-.527-.044-.247-.283-.41-.527-.364-.77.14-1.377.246-1.918.33.09.09.145.214.136.35-.014.184-.033.37-.047.554" transform="translate(-35 -903) translate(35 903)"/>
                <path fill="#F5C97A" d="M15.92 13.612c-.241 3.14-.537 6.303-.892 9.423l.04-.003c.295-.03.587-.062.882-.098.353-3.131.651-6.303.89-9.45l.048-.554c.01-.137-.046-.26-.136-.35-.074-.074-.17-.127-.283-.135-.181-.013-.348.085-.43.238-.03.054-.05.114-.056.18-.018.249-.044.5-.063.749" transform="translate(-35 -903) translate(35 903)"/>
                <path fill="#F5C97A" d="M15.028 23.036c-.62.063-1.26.129-2.003.26-.246.044-.41.28-.366.526.038.22.23.374.445.374.026 0 .053-.002.08-.007.725-.128 1.36-.194 1.976-.255.962-.098 1.958-.2 3.27-.546.242-.064.387-.312.323-.554-.065-.242-.313-.386-.554-.322-.867.229-1.571.34-2.25.422-.294.036-.586.067-.88.098l-.041.004M20.421 13.157c.124.049.252.081.378.096.062.075.147.13.243.153.047.076.115.137.197.176.077.035.163.048.246.038-.089.393-.272.764-.547 1.06-.17.184-.159.47.025.641.087.081.198.121.308.121.122 0 .243-.05.333-.145.649-.7.93-1.7.817-2.646.067-.233.077-.482.017-.723-.031-.126-.114-.231-.227-.291-.038-.098-.11-.181-.203-.233-.039-.066-.08-.13-.124-.193-.113-.162-.319-.231-.506-.173-.334.104-.605.346-.759.648-.033.041-.062.084-.086.13-.237.25-.379.566-.397.895-.01.195.105.374.285.446M21.786 17.39c-.137.822-.224 1.651-.261 2.483-.011.002-.023.003-.033.006-.246.048-.405.287-.357.532l.46 2.327c.043.215.232.365.445.365.02 0 .043-.001.064-.005.24-.034.409-.249.387-.49-.153-1.69-.09-3.396.189-5.07.007-.038.024-.139.044-.19.105.048.305.246.403.493.292.723.516 1.47.67 2.232.02.467.089.932.209 1.385.06.227.286.372.517.33.233-.042.395-.255.372-.49-.043-.447-.108-.892-.194-1.332-.024-.776.112-1.557.401-2.28.065-.158.102-.207.13-.226.074 0 .328.212.47.56.408 1.014.651 2.08.725 3.169.042.628.416.76.576.788.25.044.492-.093.588-.332.088-.22.052-.543-.19-.706-.029-.02-.058-.035-.089-.047-.096-1.103-.356-2.182-.77-3.21-.163-.402-.526-.926-1.022-1.083-.272-.085-.551-.048-.788.105-.253.164-.38.418-.47.645-.063.155-.12.313-.17.472-.04-.107-.081-.213-.124-.32-.175-.434-.591-.949-1.093-1.053-.287-.06-.563.021-.775.23-.234.228-.284.53-.314.711M32.583 22.43c.127.02.256.03.384.03.803 0 1.624-.383 2.176-1.034.233-.276.407-.625.486-.985-.025-.068-.053-.131-.071-.209-.067-.283-.075-.573-.038-.857-.041-.079-.086-.156-.144-.229-.469-.585-1.225-.63-1.892-.67-.69-.042-1.026-.09-1.125-.355-.063-.173.039-.437.238-.612.246-.216.604-.335.95-.45.238-.079.367-.335.288-.573-.079-.237-.334-.365-.573-.287-.412.137-.88.291-1.264.63-.406.357-.715.992-.489 1.605.313.85 1.205.904 1.921.946.525.032 1.022.062 1.239.333.224.28.065.793-.219 1.127-.439.52-1.117.792-1.723.694-.613-.097-1.145-.619-1.213-1.187-.03-.249-.253-.426-.504-.397-.248.03-.425.255-.396.504.117.981.945 1.812 1.97 1.976" transform="translate(-35 -903) translate(35 903)"/>
                <path fill="#F5C97A" d="M37.092 18.298l.035.007c.312.067.57.265.672.514.1.238.087.522-.033.797-.135.311-.387.561-.675.67-.223.084-.467.07-.556-.032-.037-.043-.07-.12-.095-.23-.15-.627.142-1.333.652-1.726m-1.535 1.934c.019.079.047.141.071.209.058.156.127.297.221.406.229.264.572.403.95.403.198 0 .406-.038.612-.116.52-.197.954-.618 1.186-1.156.218-.503.233-1.037.041-1.504-.148-.358-.432-.66-.79-.857-.001-.043-.008-.087-.023-.13-.078-.238-.334-.367-.572-.288-.14.046-.275.106-.402.177-.398.013-.762.157-1.042.42-.183.171-.192.458-.02.64.006.007.012.014.02.02-.152.287-.248.6-.29.919-.035.284-.029.574.038.857M12.483 39.678l.036-.001c.25-.02.436-.238.416-.487l-.478-6.16c-.03-.032-.068-.054-.09-.094-.083-.16-.058-.348.045-.483l-.406-5.222c-.02-.25-.24-.436-.487-.417-.25.02-.436.238-.417.488l.93 11.958c.018.238.217.418.45.418" transform="translate(-35 -903) translate(35 903)"/>
                <path fill="#F5C97A" d="M12.368 32.936c.02.04.058.062.089.093.086.088.192.15.313.15.07 0 .143-.016.21-.051.76-.398 1.464-.928 2.072-1.54-.045-.383-.094-.765-.134-1.148-.045.025-.088.056-.124.098-.617.727-1.39 1.345-2.234 1.786-.061.032-.11.078-.149.129-.102.135-.127.322-.043.483" transform="translate(-35 -903) translate(35 903)"/>
                <path fill="#F5C97A" d="M16.148 38.47c.044.215.233.363.444.363.03 0 .061-.003.092-.01.245-.05.403-.29.353-.534-.749-3.639-1.247-7.357-1.48-11.054-.017-.25-.227-.437-.482-.423-.25.016-.44.231-.424.481.066 1.048.16 2.098.268 3.147.038.383.088.765.133 1.147.27 2.31.63 4.613 1.096 6.884M20.182 36.266c-.024.25.159.47.408.495.25.023.47-.16.494-.409.12-1.255-.009-2.513-.342-3.714-.244.2-.52.356-.816.467.262 1.034.356 2.11.256 3.161M18.078 32.726c.037-.209.213-.35.414-.364.108-.666.211-1.339.264-2.009.37.59.669 1.224.902 1.883.299-.122.565-.315.765-.56-.413-1.07-.994-2.079-1.748-2.962-.126-.147-.332-.199-.513-.127-.18.072-.294.25-.284.444.057 1.154-.15 2.409-.35 3.622-.208 1.26-.423 2.564-.36 3.815.013.243.213.43.453.43h.023c.25-.012.443-.225.43-.476-.052-1.022.106-2.123.282-3.205-.194-.08-.317-.277-.278-.491" transform="translate(-35 -903) translate(35 903)"/>
                <path fill="#F5C97A" d="M20.478 31.613c-.016.022-.037.041-.055.064-.2.245-.466.437-.764.558-.335.137-.706.187-1.056.124-.038-.007-.075 0-.111.003-.201.015-.377.156-.414.363-.039.215.084.412.277.492.03.012.056.029.089.035.156.027.313.041.47.041.345 0 .689-.067 1.012-.188.295-.111.572-.268.816-.467.174-.142.33-.305.465-.486.15-.202.107-.485-.095-.634-.201-.148-.485-.106-.634.095M21.899 29.392c-.243.057-.395.3-.339.544l.034.142c.175-.233.358-.458.556-.664-.079-.029-.163-.042-.251-.022M22.694 33.813c-.106-.013-.194-.068-.263-.14l.481 2.071c.007.207.124.403.315.515.102.06.215.09.326.09.14 0 .277-.047.385-.14.195-.165.26-.444.165-.694-.073-.187-.223-.326-.402-.38l-.307-1.316c-.091.008-.182.021-.275.021-.141 0-.283-.008-.425-.027M22.81 32.914c.122.016.25.02.378.016l-.612-2.632c-.146.174-.286.358-.42.545-.084.114-.211.172-.343.18l.515 2.21c.064-.206.26-.347.481-.319" transform="translate(-35 -903) translate(35 903)"/>
                <path fill="#F5C97A" d="M25.772 29.44c-.048-.062-.096-.124-.15-.182-.55-.594-1.273-.858-1.984-.725-.602.113-1.077.453-1.489.88-.198.206-.38.433-.556.665l-.171.232c-.148.203-.103.486.1.633.088.064.19.085.291.08.132-.008.259-.065.342-.18.135-.187.275-.372.42-.545.36-.431.758-.786 1.23-.874.398-.075.819.09 1.154.45.398.429.57 1.025.44 1.518-.252.943-1.274 1.505-2.211 1.538-.129.005-.255 0-.379-.016-.22-.028-.417.113-.481.319-.008.025-.022.046-.025.073-.019.142.035.272.127.367.07.072.158.127.264.14.142.019.284.027.425.027.093 0 .184-.014.276-.021 1.04-.085 1.997-.634 2.528-1.44-.193-.966-.236-1.956-.15-2.94" transform="translate(-35 -903) translate(35 903)"/>
                <path fill="#F5C97A" d="M26.277 31.15c.09-.13.233-.19.378-.188-.035-.537-.026-1.076.032-1.612-.007.013-.016.024-.022.037-.1.23-.366.335-.596.235-.167-.072-.266-.234-.27-.405-.008.075-.02.149-.027.223-.085.982-.043 1.974.15 2.94.294 1.468.903 2.874 1.8 4.087.09.12.227.184.366.184.094 0 .188-.03.269-.089.201-.149.243-.433.095-.634-.862-1.165-1.423-2.527-1.673-3.943-.133-.057-.264-.122-.385-.205-.207-.142-.259-.425-.117-.63M26.898 27.99c-.012-.193-.14-.365-.337-.413-.243-.06-.489.087-.548.33-.102.412-.162.829-.207 1.248.005-.043.01-.087.028-.128.198-.457.583-.819 1.064-1.037" transform="translate(-35 -903) translate(35 903)"/>
                <path fill="#F5C97A" d="M26.898 27.99c-.481.218-.866.58-1.064 1.037-.019.041-.023.085-.028.128-.003.02-.008.041-.007.062.004.171.102.333.27.406.23.099.496-.006.596-.236.005-.013.015-.024.022-.037.133-.275.396-.495.733-.604.357-.114.739-.083 1.02.087.28.167.485.472.563.836.081.375.017.749-.175 1.028-.4.578-1.333.741-1.92.336-.078-.053-.165-.07-.253-.07-.145-.002-.29.058-.377.187-.142.206-.09.488.115.63.122.083.252.149.385.204.285.12.59.183.896.183.737 0 1.472-.336 1.9-.955.334-.483.45-1.116.316-1.734-.132-.609-.49-1.128-.984-1.423-.51-.306-1.152-.368-1.763-.172-.086.028-.164.07-.245.107M32.642 32.068c.078.052.166.077.252.077.093 0 .178-.038.255-.092.06-.172.111-.351.156-.535-.034-.08-.081-.152-.157-.204-.936-.627-1.742-1.467-2.33-2.428-.13-.214-.41-.28-.622-.15-.214.13-.281.41-.15.622.655 1.073 1.552 2.01 2.596 2.71" transform="translate(-35 -903) translate(35 903)"/>
                <path fill="#F5C97A" d="M31.61 34.135c-.211.133-.274.413-.14.625.085.137.233.21.382.21.083 0 .167-.022.242-.069 1.094-.691 1.885-1.974 2.17-3.518.25-1.343.126-2.69.005-3.991-.022-.25-.245-.432-.493-.41-.249.023-.432.244-.41.493.115 1.24.232 2.523.007 3.743-.019.102-.045.2-.068.3-.044.184-.096.363-.156.535-.32.913-.857 1.65-1.539 2.082M39.113 25.485c.037.082.068.194.07.309.032 1.49-.264 3-.848 4.38-.22-1.593.049-3.253.778-4.689m-.807-.412c-.994 1.954-1.22 4.282-.624 6.392l-.134.219c-.134.212-.07.491.14.625.075.047.16.07.243.07.15 0 .296-.075.382-.211 1.195-1.89 1.825-4.16 1.776-6.394-.008-.4-.19-.94-.569-1.177-.224-.14-.491-.157-.734-.045-.281.13-.415.394-.48.521M38.154 33.089c-.172-.06-.356-.01-.475.112-.162-.054-.35-.014-.474.118-.258.272-.293.693-.087 1.047.171.296.463.47.766.47.062 0 .124-.008.185-.023.364-.088.622-.423.643-.833.02-.41-.205-.768-.558-.891" transform="translate(-35 -903) translate(35 903)"/>
            </g>
        </g>
    </g>
</svg>
