<svg xmlns="http://www.w3.org/2000/svg" xmlns:xlink="http://www.w3.org/1999/xlink" width="16" height="35" viewBox="0 0 16 35">
    <defs>
        <path id="k6b8z5wkca" d="M0 0.195L5.894 0.195 5.894 10 0 10z"/>
        <path id="0pvk99zgvc" d="M0.482 0.766L15.528 0.766 15.528 30.84 0.482 30.84z"/>
    </defs>
    <g fill="none" fill-rule="evenodd">
        <g>
            <g>
                <path fill="#7387A4" d="M5.754 25.171v.001c-.267.464-.563.912-.852 1.365.307-.458.6-.925.874-1.403h.001l-.018.03-.005.007" transform="translate(-292 -455) translate(292 455)"/>
                <g transform="translate(-292 -455) translate(292 455) translate(0 24.234)">
                    <mask id="mjit1hnhkb" fill="#fff">
                        <use xlink:href="#k6b8z5wkca"/>
                    </mask>
                    <path fill="#7387A4" d="M1.171 6.84c-.268 0-.51-.155-.624-.398-.116-.249-.074-.543.108-.749C2.152 4.004 3.475 2.16 4.582.215c.004-.007.011-.01.015-.018l.001-.002-.015.017C3.41 2.244 1.943 4.082.221 5.675c-.166.153-.246.38-.214.602.031.225.171.418.373.52 1.588.793 3.054 1.81 4.356 3.02.133.122.301.183.468.183.186 0 .37-.074.506-.22.26-.279.242-.715-.036-.974-.857-.796-1.78-1.512-2.76-2.145-.57.094-1.144.161-1.723.178h-.02z" mask="url(#mjit1hnhkb)"/>
                </g>
                <path fill="#7387A4" d="M5.826 23.613c.336.18.46.597.28.932.085-.15.164-.3.243-.452.175-.338.042-.754-.295-.93-.338-.174-.754-.041-.928.297-.073.14-.147.282-.233.434.18-.335.599-.461.933-.281M5.85 25.004c0 .003-.003.006-.005.008l.004-.003c.074-.127.142-.25.206-.37l-.2.362-.005.003" transform="translate(-292 -455) translate(292 455)"/>
                <path fill="#7387A4" d="M5.56 24.043c.341.168.48.582.312.923-.006.013-.015.025-.022.038L5.854 25c.068-.12.135-.241.201-.362l.047-.083.005-.01v-.001c.18-.335.055-.752-.28-.932-.335-.18-.753-.054-.934.28-.076.142-.154.28-.232.42l-.005.008c-.003.006-.003.013-.006.018.174-.327.574-.461.91-.296M5.76 25.163l-.007.01.001-.002.005-.008" transform="translate(-292 -455) translate(292 455)"/>
                <path fill="#7387A4" d="M5.522 24.192c.328.187.442.603.259.933.023-.037.045-.074.064-.112l.005-.01.023-.037c.168-.341.028-.754-.313-.923-.336-.165-.736-.031-.91.296-.004.007-.01.01-.013.017-.009.018-.019.036-.03.053-.004.007-.004.014-.009.02l-.001.003c.195-.315.601-.425.925-.24" transform="translate(-292 -455) translate(292 455)"/>
                <g transform="translate(-292 -455) translate(292 455) translate(0 .234)">
                    <mask id="u1qraww0xd" fill="#fff">
                        <use xlink:href="#0pvk99zgvc"/>
                    </mask>
                    <path fill="#7387A4" d="M13.606 14.424c-.564-.714-1.297-1.246-2.093-1.528.74-.41 1.366-1.025 1.751-1.757.232-.441.394-.918.485-1.423.572 1.357.516 3.083-.143 4.708M10.879 17.5c-.899.315-2.163.065-2.61-.81-.219-.428-.184-.97.096-1.483.344-.633.974-1.085 1.608-1.151.082-.008.162-.012.243-.012 1.134 0 2.137.826 2.659 1.763-.439.649-1.101 1.376-1.996 1.693M7.522 9.796c.069-1.01.621-1.905 1.402-2.28.38-.18.799-.268 1.233-.268.759 0 1.557.27 2.257.786.124.916-.002 1.764-.37 2.465-.43.819-1.353 1.443-2.295 1.55-.368.043-.909.025-1.402-.302-.584-.387-.885-1.098-.825-1.951m7.302-1.031c-.279-.54-.672-1.046-1.146-1.474-.163-.723-.447-1.45-.829-2.117-.991-1.728-2.529-3.062-3.886-4.24-.288-.248-.722-.218-.971.07-.249.287-.219.722.069.972 1.336 1.159 2.718 2.358 3.593 3.884.058.102.114.205.167.31-1.174-.421-2.429-.402-3.49.104-1.223.585-2.08 1.93-2.184 3.427-.093 1.342.445 2.536 1.438 3.194.229.152.474.273.731.362-.472.323-.876.767-1.162 1.292-.499.92-.54 1.928-.112 2.768.812 1.586 2.821 2 4.296 1.482.736-.261 1.419-.731 2.022-1.386.136 1.202-.14 2.417-.441 3.318-1.47 4.386-5.579 7.785-10.128 8.566.765-.956 1.457-1.965 2.112-2.994.288-.452.585-.9.85-1.364l.006-.01.019-.03.001-.001.002-.007c.183-.33.069-.746-.259-.933-.324-.184-.73-.075-.925.24-.004.007-.011.01-.014.018-1.109 1.945-2.43 3.788-3.927 5.478-.183.206-.225.5-.109.749.114.242.357.397.624.397h.02c.579-.018 1.153-.084 1.724-.178 5.075-.836 9.672-4.606 11.31-9.494.666-1.987.732-3.758.198-5.26l.076-.138c1.248-2.376 1.369-4.995.325-7.005" mask="url(#u1qraww0xd)"/>
                </g>
            </g>
        </g>
    </g>
</svg>
