<svg xmlns="http://www.w3.org/2000/svg" xmlns:xlink="http://www.w3.org/1999/xlink" width="35" height="42" viewBox="0 0 35 42">
    <defs>
        <path id="731h0ywh2a" d="M0 0.448L34.306 0.448 34.306 40 0 40z"/>
    </defs>
    <g fill="none" fill-rule="evenodd">
        <g>
            <g>
                <path fill="#C36976" d="M16.776 16.758c.02.179-.03.341-.109.489.087.027.173.062.263.062.167 0 .337-.049.486-.15.391-.269.493-.804.224-1.197-.334-.49-.671-.95-1.005-1.394.002.084-.006.156-.003.24v.004c.023.626.07 1.263.144 1.946" transform="translate(-43 -375) translate(43 375)"/>
                <g transform="translate(-43 -375) translate(43 375) translate(0 .803)">
                    <mask id="8egw37yugb" fill="#fff">
                        <use xlink:href="#731h0ywh2a"/>
                    </mask>
                    <path fill="#C36976" d="M2.028 11.159c.587-1.998 2.19-3.494 3.898-3.639.1-.008.198-.012.297-.012 1.858 0 3.606 1.43 4.782 2.531 1.419 1.329 2.733 2.789 3.923 4.331-.005-.098-.013-.2-.017-.298-.017-.477.355-.875.83-.892.47-.016.874.353.892.828v-.003c-.004-.084.005-.156.002-.24-.094-3.112.421-5.619 1.596-7.631 1.508-2.585 4.894-4.684 7.957-3.719 1.125.357 2.198 1.099 3.193 2.21 2.98 3.325 3.955 8.534 2.614 13.934-1.237 4.973-4.057 9.384-6.787 13.65l-3.52 5.517c-.135.208-.304.467-.433.526-.21.096-.721-.117-.892-.19-8.758-3.627-15.68-11.58-18.067-20.752-.417-1.612-.9-4.002-.268-6.151M19.7 39.653c.435.182.92.347 1.42.347.282 0 .568-.052.85-.182.583-.265.915-.776 1.165-1.158l3.523-5.523c2.674-4.18 5.704-8.916 7.007-14.163 1.48-5.954.358-11.748-3.002-15.498-1.204-1.343-2.535-2.253-3.959-2.703-4.026-1.269-8.139 1.367-9.962 4.494-1.048 1.798-1.647 3.9-1.808 6.378-.867-1.002-1.789-1.96-2.752-2.862-1.48-1.385-3.748-3.201-6.402-2.979-2.4.204-4.622 2.206-5.406 4.869-.754 2.559-.215 5.26.254 7.07 2.519 9.685 9.827 18.08 19.072 21.91" mask="url(#8egw37yugb)"/>
                </g>
                <path fill="#C36976" d="M15.92 17.712c.03 0 .062 0 .093-.005.296-.032.525-.217.655-.46.077-.148.127-.31.109-.49-.075-.682-.122-1.318-.145-1.945-.017-.476-.423-.846-.892-.83-.473.018-.846.417-.83.892.004.098.013.2.018.298.027.573.069 1.154.135 1.773.049.44.421.767.856.767M12.004 23.92c.164.059.338.089.512.089.25 0 .503-.061.736-.179.396-.202.694-.555.811-.967.133-.456-.131-.934-.587-1.066-.414-.12-.847.087-1.022.466-.406-.077-.822.151-.968.555-.162.447.07.941.518 1.102M23.136 20.078c.161.056.331.085.503.085.255 0 .512-.062.748-.185.394-.204.686-.555.802-.964.128-.457-.138-.933-.596-1.062-.415-.118-.84.089-1.015.466-.41-.075-.826.156-.968.563-.158.447.079.94.526 1.097M18.785 25.84c.13.346.458.56.808.56.1 0 .201-.017.3-.054.445-.167.672-.663.506-1.108l-1.45-3.883c-.167-.446-.662-.672-1.109-.506-.445.166-.67.663-.505 1.109l1.45 3.881zM20.817 32.156c1.09 0 2.182-.24 3.162-.728 2.356-1.177 3.946-3.734 3.959-6.364.002-.476-.381-.864-.856-.865-.485-.004-.864.381-.867.857-.008 1.997-1.216 3.938-3.005 4.83-1.788.893-4.067.692-5.67-.502-.382-.284-.92-.204-1.205.177-.285.382-.205.922.177 1.205 1.233.918 2.77 1.39 4.305 1.39" transform="translate(-43 -375) translate(43 375)"/>
            </g>
        </g>
    </g>
</svg>
