<svg xmlns="http://www.w3.org/2000/svg" xmlns:xlink="http://www.w3.org/1999/xlink" width="43" height="43" viewBox="0 0 43 43">
    <defs>
        <path id="xjrjntkj6a" d="M0 0L42.894 0 42.894 42.572 0 42.572z"/>
    </defs>
    <g fill="none" fill-rule="evenodd">
        <g>
            <g transform="translate(-39 -457) translate(39 457)">
                <mask id="bjhih5326b" fill="#fff">
                    <use xlink:href="#xjrjntkj6a"/>
                </mask>
                <path fill="#9D84B0" d="M42.501 10.405c-.96-3.884-4.077-7.375-8.032-7.975-2.917-.442-5.899.693-8.256 2.466-1.462 1.099-2.72 2.427-3.888 3.84-2.152-4.325-6.37-7.6-11.122-8.526-1.186-.231-2.429-.323-3.595-.003-1.205.332-2.256 1.085-3.153 1.956C-.33 6.82-.753 14.459.82 20.95c2.241 9.246 8.417 17.949 17.361 21.195.086.03.178.057.275.078.037.386.994.475 1.487.152 8.244-5.396 16.745-11.391 20.922-20.314 1.698-3.623 2.598-7.772 1.636-11.656" mask="url(#bjhih5326b)"/>
            </g>
        </g>
    </g>
</svg>
