<svg xmlns="http://www.w3.org/2000/svg" xmlns:xlink="http://www.w3.org/1999/xlink" width="27" height="56" viewBox="0 0 27 56">
    <defs>
        <path id="1c80fjx0za" d="M0.984 0.265L15.21 0.265 15.21 18.157 0.984 18.157z"/>
        <path id="0xnkelp4lc" d="M0.917 0.41L1.917 0.41 1.917 0.972 0.917 0.972z"/>
        <path id="k3nw9xl40e" d="M0.734 0.511L17.429 0.511 17.429 25 0.734 25z"/>
    </defs>
    <g fill="none" fill-rule="evenodd">
        <g>
            <g>
                <g transform="translate(-288 -375) translate(288 375) translate(11 11.59)">
                    <mask id="09eoiq55ab" fill="#fff">
                        <use xlink:href="#1c80fjx0za"/>
                    </mask>
                    <path fill="#9A82AD" d="M15.114 3.2c-.183-.966-.671-1.91-1.488-2.458-1.281-.86-3.15-.5-4.21.62-.85.897-1.59 3.016-1.666 4.595-.45-1.055-.98-2.171-1.608-3.1-.703-1.042-1.974-1.847-3.185-1.514-1.764.486-2.14 2.824-1.913 4.638.577 4.639 2.87 9.043 6.34 12.175l5.034-7.334c1.568-2.284 3.212-4.9 2.696-7.621" mask="url(#09eoiq55ab)"/>
                </g>
                <g transform="translate(-288 -375) translate(288 375) translate(2 .59)">
                    <mask id="wrvwgjchbd" fill="#fff">
                        <use xlink:href="#0xnkelp4lc"/>
                    </mask>
                    <path fill="#A0B2BA" d="M1.392.444l.05.09C1.437.494 1.434.453 1.428.41l-.036.034z" mask="url(#wrvwgjchbd)"/>
                </g>
                <path fill="#A0B2BA" d="M9.323 6.015C6.4 5.413 4.84 3.74 3.442 1.125 3.706 3.67 2.28 6.317 0 7.484c1.473-.067 2.728 1.07 3.558 2.29.829 1.22 1.446 2.623 2.556 3.594-.79-2.787.627-6.036 3.208-7.353" transform="translate(-288 -375) translate(288 375)"/>
                <g transform="translate(-288 -375) translate(288 375) translate(1 29.59)">
                    <mask id="jxuwhw2tuf" fill="#fff">
                        <use xlink:href="#k3nw9xl40e"/>
                    </mask>
                    <path fill="#F3CA79" d="M9.761.511l-.13 2.366C9.26 5.433 8.223 7.83 6.515 9.8c-1.444 1.664-3.61 2.552-5.78 2.93 2.526.068 4.856 1.095 6.1 3.296 0 0 1.626 2.788 1.748 5.89L8.414 25c.248-2.746.933-5.505 2.424-7.824 1.491-2.318 3.866-4.157 6.591-4.58C12.895 10.423 9.796 5.54 9.761.511" mask="url(#jxuwhw2tuf)"/>
                </g>
            </g>
        </g>
    </g>
</svg>
